<?xml version="1.0" encoding="UTF-8"?>
<svg version="1.1" viewBox="0 0 2048 606" width="1267" height="375" xmlns="http://www.w3.org/2000/svg">
<path transform="translate(228,3)" d="m0 0h36l25 3 25 6 21 7 20 9 20 11 16 11 10 8 14 12 10 10 18 22 11 17 11 20 11 27 6 20 5 28 1 8v98l-1 46-2 22-5 25-6 20-8 20-13 25-8 12-12 16-9 10-7 8-8 8-22 18-17 11-18 10-25 11-26 8-22 4-20 2h-32l-27-3-24-5-24-8-25-12-17-10-14-10-11-9-12-11-11-11-9-11-10-13-13-21-12-25-8-23-5-19-4-26-1-15v-49l1-75 3-31 5-25 9-27 11-25 10-17 12-17 11-13 9-10 10-10 11-9 13-10 21-13 27-13 27-9 23-5z" fill="#E51C3A"/>
<path transform="translate(228,3)" d="m0 0h36l25 3 25 6 21 7 20 9 20 11 16 11 10 8 14 12 10 10 18 22 11 17 11 20 11 27 6 20 5 28 1 8v98l-1 46-2 22-5 25-6 20-8 20-13 25-8 12-12 16-9 10-7 8-8 8-22 18-17 11-18 10-25 11-26 8-22 4-20 2h-32l-27-3-24-5-24-8-25-12-17-10-14-10-11-9-12-11-11-11-9-11-10-13-13-21-12-25-8-23-5-19-4-26-1-15v-49l1-75 3-31 5-25 9-27 11-25 10-17 12-17 11-13 9-10 10-10 11-9 13-10 21-13 27-13 27-9 23-5zm3 23-26 3-25 6-17 6-20 9-22 13-13 10-14 12-13 13-9 11-12 17-9 15-11 23-9 27-5 23-2 18v138l3 24 6 25 7 20 10 21 12 19 13 16 9 10 14 14 11 9 14 10 20 12 20 9 26 8 25 5 9 1h38l23-3 21-5 20-7 20-9 20-12 12-9 11-9 13-12 13-14 12-16 12-20 8-17 8-21 5-21 3-23 1-14 1-27v-98l-2-21-5-25-5-17-10-24-11-20-10-14-8-10-9-10-7-8-8-7-16-13-21-13-17-9-26-10-24-6-14-2-13-1z" fill="#FEFDFD"/>
<path transform="translate(552,163)" d="m0 0h85l4 9 26 69 15 40v2h2l2-9 18-46 17-44 5-20 1-1h81l1 10-1 1-58 1 12 4 9 6 7 8 4 10 1 6 1 117 3 5 6 3 15 3 1 1v10h-101v-10l1-1 19-3 6-4 2-5v-137l-19 49-15 38-27 69-1 1h-17l-17-47-17-46-21-57-3-8v122l2 10 4 8 5 4 15 5 5 1v11h-80v-10l7-2 12-3 6-4 4-8 2-14v-110l-3-11-4-5-10-5-12-2z" fill="#03225B"/>
<path transform="translate(228,3)" d="m0 0h36l25 3 25 6 21 7 20 9 20 11 16 11 10 8 14 12 10 10 18 22 11 17 11 20 11 27 6 20 5 28 1 8v98l-1 46-2 22-5 25-6 20-8 20-13 25-8 12-12 16-9 10-7 8-8 8-22 18-17 11-18 10-25 11-26 8-22 4-20 2h-32l-27-3-24-5-24-8-25-12-17-10-14-10-11-9-12-11-11-11-9-11-10-13-13-21-12-25-8-23-5-19-4-26-1-15v-49l1-75 3-31 5-25 9-27 11-25 10-17 12-17 11-13 9-10 10-10 11-9 13-10 21-13 27-13 27-9 23-5zm3 11-26 3-22 5-27 9-25 12-15 9-14 10-11 9-12 11-8 8-9 11-10 13-13 21-10 21-9 25-6 24-3 26-1 17v126l4 27 6 22 6 17 9 20 13 22 13 17 12 14 14 14 11 9 15 11 19 11 25 12 18 6 21 5 21 3 12 1h26l22-2 26-5 17-5 21-9 16-8 15-9 11-8 14-11 16-15 11-12 15-20 14-24 8-17 10-30 5-25 2-24 1-47v-88l-4-26-4-17-7-21-9-20-8-15-12-18-13-16-14-15-8-7-15-12-15-10-16-9-19-9-30-10-24-5-19-2z" fill="#E51C3A"/>
<path transform="translate(551,394)" d="m0 0h1496v10h-1497v-9z" fill="#03225B"/>
<path transform="translate(242,113)" d="m0 0 10 3 49 19 86 34 22 9 2 1-1 4-6 5-3 1-1-1-252-1h-62l-5-6 1-4 29-12 63-25 56-22z" fill="#FEFDFD"/>
<path transform="translate(969,191)" d="m0 0h19l16 4 11 5 4-1 4-4h9l1 16v37h-9l-9-20-7-12-7-7-10-5-4-1h-11l-8 3-6 5-4 9v10l4 8 8 6 14 6 28 10 11 6 9 8 6 10 3 10v17l-3 10-6 11-7 7-11 7-11 4-10 2h-24l-17-4-12-5-4-2-2 4-3 3h-10l-1-25v-31h9l9 19 9 13 8 8 10 6 7 2h13l10-3 7-6 4-9v-11l-4-8-7-6-14-6-28-10-11-6-9-8-5-8-4-12v-18l4-12 8-11 9-7 11-5z" fill="#03225B"/>
<path transform="translate(1342,191)" d="m0 0h19l16 4 11 5 4-1 3-4h10l1 18v35h-9l-9-20-7-12-7-7-10-5-4-1h-11l-10 4-6 7-2 6v10l4 8 8 6 14 6 28 10 11 6 9 8 6 10 3 10v17l-3 10-5 9-8 9-11 7-15 5-6 1h-24l-17-4-12-5-4-1-5 6h-10l-1-27v-29h9l10 21 8 11 8 8 10 6 7 2h13l10-3 7-6 4-9v-11l-4-8-7-6-14-6-28-10-11-6-9-8-5-8-4-12v-19l5-13 8-10 8-6 11-5z" fill="#03225B"/>
<path transform="translate(1480,191)" d="m0 0h19l16 4 12 5 4-2 3-3h9l1 1v52h-8l-13-26-6-9-11-8-7-2h-11l-9 3-5 5-3 4-2 7 1 10 5 8 10 6 38 14 13 7 9 9 6 12 2 11v8l-3 13-6 11-9 9-12 7-13 4-5 1h-25l-16-4-12-5-4-1-6 6h-9l-1-1-1-55h9l8 16 7 12 10 11 9 6 10 3h12l10-3 6-4 5-10 1-9-3-9-5-5-8-5-15-6-20-7-14-7-7-6-7-11-3-9-1-5v-13l4-13 6-9 8-8 14-7z" fill="#03225B"/>
<path transform="translate(1107,191)" d="m0 0h19l16 4 15 6 2-4 2-2h9l1 1v52h-8l-5-10-8-17-8-10-9-6-7-2h-11l-9 3-5 5-3 4-2 8 1 9 4 7 11 7 36 13 15 8 9 9 6 12 2 11v8l-3 13-6 11-9 9-10 6-11 4-9 2h-25l-16-4-12-5-4-1-5 6h-10l-1-3-1-52 4-1h5l8 16 7 12 10 11 9 6 10 3h13l11-4 5-5 4-8 1-9-3-9-5-5-8-5-18-7-22-8-10-6-9-9-6-12-2-9v-13l4-13 6-9 8-8 14-7z" fill="#03225B"/>
<path transform="translate(1667,195)" d="m0 0h90l14 2 12 4 9 6 5 6 4 9 1 4v15l-3 12-7 11-8 7-14 7-12 3-7 1h-27l1 47 3 5 7 3 9 2 1 1v8h-78l-1-2 1-7 15-3 4-4v-119l-5-5-14-4zm57 10v67h11l11-3 6-4 6-7 3-7 1-6v-13l-3-13-4-6-6-5-5-2-7-1z" fill="#03225B"/>
<path transform="translate(1816,195)" d="m0 0h90l14 2 12 4 9 6 6 7 4 11v18l-3 10-6 10-10 9-13 6-12 3-7 1-26 1v44l3 7 7 3 10 2v9h-78v-9l15-3 4-3 1-5v-112l-2-7-10-3-8-2zm58 10-1 3v63l1 1h10l9-2 10-6 6-9 2-7v-19l-3-11-5-7-10-5-7-1z" fill="#03225B"/>
<path transform="translate(92,191)" d="m0 0h305l1 1v26h-306l-1-1v-18z" fill="#FEFDFD"/>
<path transform="translate(241,125)" d="m0 0 7 1 29 11 95 38v1h-256l3-3 49-19z" fill="#FEFDFD"/>
<path transform="translate(1964,195)" d="m0 0h81v8l-7 2-9 2-5 5v119l1 3 5 2 14 3 1 1v8h-81v-9l15-2 5-3 1-2v-118l-2-4-6-3-12-3-1-1z" fill="#03225B"/>
<path transform="translate(1570,195)" d="m0 0h80v9l-16 3-4 4-1 2v116l3 5 7 3 10 2 1 1v8h-80l-1-2 1-7 15-2 5-5 1-5v-110l-3-7-6-3-12-3z" fill="#04235C"/>
<path transform="translate(824,195)" d="m0 0h80v9l-15 3-4 2-2 4v116l3 5 7 3 10 2 1 1v8h-80l-1-1v-6l1-2 15-2 5-5 1-3v-113l-3-6-6-3-12-3-1-7z" fill="#03225B"/>
<path transform="translate(1197,195)" d="m0 0h80v9l-15 3-4 2-2 4v116l3 5 7 3 11 2v9h-80l-1-5 1-4 15-2 5-5 1-4v-111l-3-7-6-3-12-3z" fill="#03225B"/>
<path transform="translate(1353,60)" d="m0 0h62l16 3 9 5 5 7 1 4v11l-4 9-8 7-9 4h-2l8 11 11 14 9 11 6 5 9 2v6l-3 1h-35l-13-19-12-16-7-9-4-2 1 34 3 3 9 2v6h-53l1-6 10-2 2-1 1-3v-74l-4-4-9-3-1-5zm39 7v41h10l10-4 5-7 1-4v-14l-4-7-7-4-3-1z" fill="#03225B"/>
<path transform="translate(932,60)" d="m0 0h38l11 13 11 14 9 11 13 16 8 10 1-19v-15l-1-12-3-7-13-5v-6h43v6l-11 3-4 5-1 5-1 81h-13l-11-13-11-14-14-17-11-14-13-16v53l3 9 5 3 8 2v7l-42-1v-6l9-2 5-4 1-3 1-13v-46l-2-10-7-6-8-3z" fill="#04235B"/>
<path transform="translate(1500,58)" d="m0 0h21l15 5 4-2 1-1h6l1 1v33l-5 1-4-6-6-12-6-7-8-4h-12l-7 4-3 6v7l4 6 12 6 23 8 9 6 6 7 3 10v8l-3 9-6 9-10 6-8 3-5 1h-19l-12-3-10-4-2 4-3 1-5-1-1-35 1-1h6l8 15 9 10 6 4 9 2 10-1 7-4 3-5v-10l-6-7-12-5-18-6-9-5-7-8-4-10v-10l4-10 7-8 12-6z" fill="#03225B"/>
<path transform="translate(1251,60)" d="m0 0h88v26h-6l-6-10-8-7-3-1-25-1v38l17-2 5-3 5-12h6v41h-6l-4-11-4-4-6-2-13-1 1 37 3 3 5 1h15l10-2 5-5 6-9 5-8 5 1-2 30-2 1-91-1v-6l11-2 2-2v-78l-6-3-7-2z" fill="#03225B"/>
<path transform="translate(810,60)" d="m0 0h52v6l-11 3-1 1-1 24v25l1 16 4 9 8 6 4 1h14l8-3 5-5 4-8 1-4v-51l-3-8-4-3-9-3v-6h43v6l-11 3-3 1-2 7-1 54-4 13-6 8-11 7-11 3h-19l-12-3-9-5-5-4-6-10-2-8-1-60-3-3-9-3z" fill="#03225B"/>
<path transform="translate(382,232)" d="m0 0h6l7 9 2 62 1 101 3 3v2h-33l2-5 1-8 1-98 2-47 1-11 5-7z" fill="#FEFDFD"/>
<path transform="translate(157,231)" d="m0 0 7 1 4 6 1 1 1 15 1 33 1 111 2 7 2 3h-34l3-7 1-98 1-14 2-49 6-8z" fill="#FEFDFD"/>
<path transform="translate(269,232)" d="m0 0h6l7 9 2 61 1 101 3 6h-33l3-9 1-31v-73l2-45 1-11z" fill="#FEFDFD"/>
<path transform="translate(326,232)" d="m0 0h7l6 7 1 5 2 67v80l1 13 3 4-1 1h-32l2-7 1-11 1-95 2-45 1-12z" fill="#FEFDFD"/>
<path transform="translate(101,231)" d="m0 0 6 1 6 7 1 17 1 31 1 118 3 1v3h-32v-3l2-5 1-20v-70l2-50 1-18 3-7z" fill="#FEFDFD"/>
<path transform="translate(212,232)" d="m0 0h7l6 8 1 13 1 33 1 114 2 5 1 4h-33l3-7 1-13v-80l3-67 4-7z" fill="#FEFDFD"/>
<path transform="translate(1733,60)" d="m0 0h56v6l-12 2 1 5 10 19 10 17 7-10 13-22 2-4v-4l-11-3v-6h37v6l-10 4-5 5-8 11-14 22-6 11-1 9v16l2 6 12 3 1 1v5l-3 1-53-1 1-6 11-2 2-2v-29l-14-25-13-21-8-6-8-2v-5z" fill="#04235B"/>
<path transform="translate(1123,60)" d="m0 0h54v6l-12 3 2 9 15 36 8 20 5-11 17-44 1-10-13-2-1-1v-6h40v6l-12 6-8 16-19 45-11 27-15 1-10-23-15-37-11-26-5-5-10-4z" fill="#04235B"/>
<path transform="translate(1625,60)" d="m0 0h95l1 1v27l-1 1h-5l-8-14-5-6-3-1-14-1 1 81 4 3 9 2 1 1v5l-3 1-52-1v-6l9-1 5-5 1-80-15 1-6 5-6 10-3 6h-5l-1-5v-23z" fill="#03225B"/>
<path transform="translate(1561,60)" d="m0 0h55v6l-14 3v80l7 3 7 2v5l-3 1-52-1v-6l10-1 3-2 1-8-1-71-6-3-7-2z" fill="#0A285F"/>
<path transform="translate(1059,60)" d="m0 0h55v6l-12 3-2 2v77l3 3 10 2 1 1v5l-2 1-53-1v-6l10-1 4-4v-75l-4-4-10-3z" fill="#03225B"/>
<path transform="translate(242,120)" d="m0 0 5 1 39 15 63 25 36 14 9 4v1l-51 1h-133l-116-1 1-2 24-10 53-20 65-26zm-1 5-73 29-49 19-3 3h256l-2-2-56-22-55-22-14-5z" fill="#E51C3A"/>
<path transform="translate(1925,75)" d="m0 0h11l5 3v7l-3 3-7-1-5-7-5 16h8l1 3-1 2h-9l-5 25-4 13-4 6-5 4-7 3h-9l-5-3-1-6 2-4h7l5 6 1 2 3-6 8-38 1-2h-7l1-5h6l6-12 8-7z" fill="#04235C"/>
<path transform="translate(121,427)" d="m0 0h244v5h-244z" fill="#FEFDFD"/>
<path transform="translate(701,88)" d="m0 0h22l1 3-5 2-1 14h18l-1-13-6-4v-1l23-1v3l-4 2-1 34 6 1v3h-23v-3l5-2 1-15h-18l1 15 5 2v3h-23v-3l6-1-1-34-5-2z" fill="#06255D"/>
<path transform="translate(121,419)" d="m0 0h244v4h-244z" fill="#FEFDFD"/>
<path transform="translate(1873,95)" d="m0 0h14l6 3 4 5 1 2v12l-4 8-8 7-12 3-9-1-7-4-4-8v-8l4-9 4-5 7-4zm5 3-5 3-3 5-2 8v14l3 3 7-1 4-6 3-13v-8l-2-4z" fill="#05235C"/>
<path transform="translate(755,88)" d="m0 0h37l1 1v11l-4-2-4-5-13-1 1 15 7-1 5-7h1v19h-2l-3-5v-2h-9l1 16h12l5-4 4-6h1v14h-39l-1-3 6-1-1-34-5-2z" fill="#03225B"/>
<path transform="translate(320,468)" d="m0 0h12l5 5 1 4-2 5-2 4 3 1 2 3v7l-4 5-5 2h-10l-5-3-3-5 1-6 3-4-2-5-1-5 3-5z" fill="#FEFDFD"/>
<path transform="translate(209,468)" d="m0 0h11l6 5v7l-2 3 1 4 3 4-1 7-5 5-3 1h-10l-6-3-2-4v-6l4-5-2-4-1-7 5-6z" fill="#FEFDFD"/>
<path transform="translate(658,88)" d="m0 0h40l1 1v12l-4-2-4-6-7-1 1 34 5 2v3h-23l-1-3 6-2v-34l-7 2-5 7h-2z" fill="#04235B"/>
<path transform="translate(121,413)" d="m0 0h244v3h-244z" fill="#FEFDFD"/>
<path transform="translate(111,412)" d="m0 0h6l1 1v19h-31v-19z" fill="#FEFDFD"/>
<path transform="translate(369,412)" d="m0 0h30l1 1v18h-31z" fill="#FEFDFD"/>
<path transform="translate(269,468)" d="m0 0h11v21l4 1-1 5h-3v8h-8v-8h-16l1-7 10-17z" fill="#FEFDFD"/>
<path transform="translate(371,222)" d="m0 0h29l3 3v7l-3 3h-6l-3-5h-12l-4 5h-5l-3-3v-7z" fill="#FEFDFD"/>
<path transform="translate(259,222)" d="m0 0h28l3 3v8l-3 2h-5l-4-5h-12l-4 5h-5l-3-4v-6z" fill="#FEFDFD"/>
<path transform="translate(160,221)" d="m0 0h14l4 4-1 7-3 2h-5l-4-5h-12l-4 5h-5l-3-5 1-6 1-1z" fill="#FEFDFD"/>
<path transform="translate(88,222)" d="m0 0h31l3 4-1 7-2 1h-7l-3-5h-10l-7 6-5-2-2-3 1-6z" fill="#FEFDFD"/>
<path transform="translate(200,222)" d="m0 0h31l3 4-1 7-1 1h-7l-4-5h-10l-5 5h-6l-3-5 1-5z" fill="#FEFDFD"/>
<path transform="translate(315,222)" d="m0 0h31l2 3v6l-2 3h-7l-4-5h-10l-5 5h-6l-2-3v-7z" fill="#FEFDFD"/>
<path transform="translate(157,468)" d="m0 0h7l1 3v14l-1 18h-7l-1-27-4 2h-3v-6z" fill="#FEFDFD"/>
<path transform="translate(323,489)" d="m0 0h5l3 4-2 5-4 1-4-3v-5z" fill="#E51C3A"/>
<path transform="translate(212,489)" d="m0 0 6 1 1 6-3 3-5-1-2-5z" fill="#E51C3A"/>
<path transform="translate(324,473)" d="m0 0 5 1 1 5-2 3-5-1-1-6z" fill="#E51C3A"/>
<path transform="translate(270,477)" d="m0 0h2v12h-7l2-6z" fill="#E51C3A"/>
<path transform="translate(213,473)" d="m0 0 4 1 2 4-3 4-5-2-1-4z" fill="#E51C3A"/>
<path transform="translate(1823,448)" d="m0 0 3 1z" fill="#E51C3A"/>
</svg>
