<?xml version="1.0" encoding="UTF-8"?>
<svg version="1.1" viewBox="0 0 2048 960" width="800" height="375" xmlns="http://www.w3.org/2000/svg">
<path transform="translate(428,122)" d="m0 0h34l26 4 21 6 21 8 23 12 12 8 16 12 14 12 20 20 9 11 13 17 10 15 14 24 13 27 9 23 8 24 7 26 6 32 4 33 1 15v53l-2 24-4 29-6 29-7 26-10 29-9 21-11 23-13 22-11 16-13 17-9 10-7 8-13 13-11 9-10 8-21 14-23 12-21 8-23 6-30 5h-23l-32-6-19-5-25-10-22-12-16-11-14-11-15-14-14-14-9-11-11-14-14-21-10-17-9-17-12-28-8-22-8-28-6-27-5-33-2-20-1-20v-32l2-30 4-30 6-30 7-26 10-30 9-21 11-23 16-27 12-17 13-16 18-20 14-13 17-13 18-12 18-10 25-10 22-6z" fill="#FCFCFC"/>
<path transform="translate(428,122)" d="m0 0h34l26 4 21 6 21 8 23 12 12 8 16 12 14 12 20 20 9 11 13 17 10 15 14 24 13 27 9 23 8 24 7 26 6 32 4 33 1 15v53l-2 24-4 29-6 29-7 26-10 29-9 21-11 23-13 22-11 16-13 17-9 10-7 8-13 13-11 9-10 8-21 14-23 12-21 8-23 6-30 5h-23l-32-6-19-5-25-10-22-12-16-11-14-11-15-14-14-14-9-11-11-14-14-21-10-17-9-17-12-28-8-22-8-28-6-27-5-33-2-20-1-20v-32l2-30 4-30 6-30 7-26 10-30 9-21 11-23 16-27 12-17 13-16 18-20 14-13 17-13 18-12 18-10 25-10 22-6zm8 72-21 3-24 8-23 12-12 9-14 12-13 13-9 11-11 15-10 16-10 18-9 19-10 27-7 24-6 30-4 33-1 15v32l2 29 4 29 6 27 8 26 9 24 10 21 13 22 9 13 10 13 18 20 11 9 10 8 18 11 15 7 15 5 14 3 9 1h22l14-2 15-4 16-6 15-8 16-11 14-12 16-16 13-17 9-13 10-17 9-17 10-24 10-30 6-25 4-22 3-30 1-36-1-23-3-27-5-28-8-30-10-28-12-26-12-21-14-20-11-13-14-15-8-7-17-13-16-9-16-7-17-5-10-2-12-1z" fill="#F9CD03"/>
<path transform="translate(443,298)" d="m0 0h9l45 12 5 2-1 5-7 8-10 15-8 16-8 20-5 17v2l18 4 12 1h23l21-3 1 1-1 8-11 41-3 7-9 8-5-5-10-11-13-9-16-8-16-5-3 14-12 46-10 45-3 17 5-6 11-7 1-11 5-4 6 1 3 3v10l9 6 6 5 2 4 9 2 1 3 9 1 10 5 6 4 14-2 18-3 35-3 5-8-1-6-6-15-1-5v-9l3-10 8-18 4-13h2l6 13 3 11v13l-4 14-7 16-1 9 5 5 1 2 18 1 2 3-2 3h-27l-12 2-12 4-16 8-12 8-11 9-15 12-15 9-15 6-8 3-3 6-3 3 1 10 5 7-1 4-3 2 3 10 9 2 16 8 12 9 5 6 6 4v5l-5 4-15 5-18 3-12 1h-30l-24-3-15-4-8-5-2-5 6-5 5-5 7-6 7-5 8-3 6-4 10-3 2-5-1-5-3-3 2-4 4-5 1-11-4-2-3-5v-2l-11-2-8-3v8l-4 37-4 4-8 4-10-1-44-12-6-2 1-5 12-22 10-21v-3l-17-7-13-7-9-7-9-9-6-12-2-9 1-14 4-11 9-10 8-5 13-4h11l12 3 9 6 7 8 4 10 2 14 13-36 11-34 13-48 4-14-23-3h-16l-16 2-18 6h-5l1-8 14-51 3-5 5-3 6 1 8 8 15 10 19 9 11 4 5 1 1-10 2-11 1-11v-24l-2-16-3-13z" fill="#03427C"/>
<path transform="translate(438,210)" d="m0 0h10l17 2 21 6 16 8 16 10 11 9 8 7v2l4 2 10 11 13 17 11 17 12 22 11 26 8 25 7 29v3l-10 1v16l2 28-3-1-9-11-12-14-3-3-2 4-10 13-6 7-2-2-15-56 1-3 7 1-8-24-9-20-10-18-11-15-9-11-12-12-14-10-15-7-14-3h-9l-12 2-15 6-11 7-14 12-9 10-11 15-11 18-12 25-8 23v1l8 1-4 17-12 44-5-5-12-15-4-4-9 11-11 13-5 5 2-37 1-8-11-1 1-9 7-28 7-21 8-19 8-16 10-18 12-17 12-14 9-10 7-7 11-9 13-9 17-9 17-6 14-3z" fill="#F9CD03"/>
<path transform="translate(428,122)" d="m0 0h34l26 4 21 6 21 8 23 12 12 8 16 12 14 12 20 20 9 11 13 17 10 15 14 24 13 27 9 23 8 24 7 26 6 32 4 33 1 15v53l-2 24-4 29-6 29-7 26-10 29-9 21-11 23-13 22-11 16-13 17-9 10-7 8-13 13-11 9-10 8-21 14-23 12-21 8-23 6-30 5h-23l-32-6-19-5-25-10-22-12-16-11-14-11-15-14-14-14-9-11-11-14-14-21-10-17-9-17-12-28-8-22-8-28-6-27-5-33-2-20-1-20v-32l2-30 4-30 6-30 7-26 10-30 9-21 11-23 16-27 12-17 13-16 18-20 14-13 17-13 18-12 18-10 25-10 22-6zm-1 9-24 4-21 6-16 6-23 12-15 10-16 12-10 9-8 7-10 10-18 22-12 17-11 18-9 16-13 28-10 27-8 27-7 31-5 34-2 29v42l1 19 4 31 7 36 8 28 9 26 13 30 10 19 13 21 10 14 10 13 10 11 1 2h2l2 4 11 11 11 9 8 7 19 13 16 9 20 9 22 7 19 4 14 2h32l25-4 24-7 19-8 21-11 12-8 13-10 13-11 21-21 9-11 10-13 12-18 11-19 10-19 11-26 12-36 6-24 6-32 3-27 1-13v-57l-3-32-5-30-6-26-10-33-11-27-12-25-12-21-8-12-14-19-13-15-14-15-8-7-13-11-21-14-22-12-20-8-20-6-27-4z" fill="#04437C"/>
<path transform="translate(448,300)" d="m0 0 9 2 34 9 7 2-2 5-11 15-10 18-8 19-7 23-1 5 7 1 16 3 9 1h25l19-3-2 9-11 41-4-2-10-8-16-10-17-8-20-6-2 4-14 52-10 42-6 31-5 5-9 4-8-1-3 2-2 6-5 2-1-3 7-19 12-36 13-43 14-52-22-4-10-1h-25l-19 3 1-8 11-41 2-2 8 7 10 7 14 8 18 8 15 5h2l6-26 3-24v-19z" fill="#FCFCFC"/>
<path transform="translate(438,210)" d="m0 0h10l17 2 21 6 16 8 16 10 11 9 8 7v2l4 2 10 11 13 17 11 17 12 22 11 26 8 25 7 29v3l-10 1v16l2 28-3-1-9-11-12-14-3-3-2 4-10 13-6 7-2-2-15-56 1-3 7 1-8-24-9-20-10-18-11-15-9-11-12-12-14-10-15-7-14-3h-9l-12 2-15 6-11 7-14 12-9 10-11 15-11 18-12 25-8 23v1l8 1-4 17-12 44-5-5-12-15-4-4-9 11-11 13-5 5 2-37 1-8-11-1 1-9 7-28 7-21 8-19 8-16 10-18 12-17 12-14 9-10 7-7 11-9 13-9 17-9 17-6 14-3zm-9 6-18 4-16 6-14 8-14 10-12 11-13 13-13 17-10 15-10 18-10 21-9 24-6 21-4 17 5 1h40l3-4 6-21 9-24 8-16 9-16 10-14 8-10 7-8 8-7 12-9 16-8 12-3 15-1 14 3 15 6 12 8 14 12 11 12 12 17 9 15 8 16 8 19 7 23 3 9 4 1h41l1-5-8-30-9-26-8-18-12-22-7-10-10-14-12-14-15-15-13-10-16-10-14-6-17-5-6-1z" fill="#02267D"/>
<path transform="translate(439,189)" d="m0 0h9l17 2 17 4 17 6 21 11 18 13 16 15 9 9 9 11 12 16 15 25 8 15 11 27 8 25 7 28 5 33 2 26v46l-2 25-6 36-6 24-10 30-10 23-11 21-13 20-9 12-9 11-12 13h-2l-1 3-8 7-14 11-13 8-23 11-21 6-12 2h-29l-19-4-15-5-21-10-14-9-14-11-13-12-7-7-9-11-10-13-11-17-10-18-11-23-9-24-7-25-6-27-4-28-2-29v-29l2-29 4-28 6-28 8-26 9-24 14-29 15-24 10-13 8-10 14-15 10-9 16-12 17-10 16-7 20-6 11-2zm-3 5-21 3-24 8-23 12-12 9-14 12-13 13-9 11-11 15-10 16-10 18-9 19-10 27-7 24-6 30-4 33-1 15v32l2 29 4 29 6 27 8 26 9 24 10 21 13 22 9 13 10 13 18 20 11 9 10 8 18 11 15 7 15 5 14 3 9 1h22l14-2 15-4 16-6 15-8 16-11 14-12 16-16 13-17 9-13 10-17 9-17 10-24 10-30 6-25 4-22 3-30 1-36-1-23-3-27-5-28-8-30-10-28-12-26-12-21-14-20-11-13-14-15-8-7-17-13-16-9-16-7-17-5-10-2-12-1z" fill="#002D94"/>
<path transform="translate(443,298)" d="m0 0h9l45 12 5 2-1 5-7 8-10 15-8 16-8 20-5 17v2l18 4 12 1h23l21-3 1 1-1 8-11 41-3 7-9 8-5-5-10-11-13-9-16-8-16-5-3 14-8 31h-2l-1-5 13-48 2-1 20 6 21 10 16 11 10 8 2-11 10-36 1-3-11 3-8 1h-25l-20-3-12-3 1-9 9-27 9-19 10-16 9-12 1-2-15-3-32-9-3-1 2 11 1 12v19l-3 24-6 26-3 1-20-7-21-10-12-8-10-9h-3l-12 44v4l18-3h25l22 3 10 3-1 8-14 51-12 39-12 36-6 16 1 2 2 1-2 3h-9l-3-3v-20l-3-13-5-8-6-5-8-4-4-1h-14l-9 3-8 5-7 8-4 10-2-2 1-9 3-6 8-7 10-5 8-2h11l12 3 9 6 7 8 4 10 2 14 13-36 11-34 13-48 4-14-23-3h-16l-16 2-18 6h-5l1-8 14-51 3-5 5-3 6 1 8 8 15 10 19 9 11 4 5 1 1-10 2-11 1-11v-24l-2-16-3-13z" fill="#01407B"/>
<path transform="translate(1295,417)" d="m0 0h18l11 3 10 5 10 8 9 13 5 14 1 5v16l-3 12-6 12-8 10-13 9-11 4-4 1h-20l-12-4-10-6-6-5-9-12-5-12-2-9v-15l3-13 6-12 9-10 7-6 10-5zm8 9-9 3-8 7-6 9-5 12-1 5v22l5 16 6 9 4 5 12 6 10-1 8-5 5-5 6-9 4-11 1-5v-22l-4-13-6-11-8-8-10-4z" fill="#05447D"/>
<path transform="translate(1694,415)" d="m0 0h10l5 12 15 38 21 54 7 1v7h-41v-6l1-1 10-1-10-25-39 1-10 25h13v7h-35v-6l1-1h10l3-9 11-28 20-49 7-18zm-1 29-5 11-10 25-1 3h32l-11-29-4-10z" fill="#06447D"/>
<path transform="translate(1090,415)" d="m0 0h9l3 5 22 57 16 41v2h7v7h-40v-7h11l-8-20-3-6h-39l-3 10-7 16h13v7h-34v-7l10-1 12-30 17-42 12-30zm-2 29-15 37v2h31l-3-9-11-29z" fill="#06457D"/>
<path transform="translate(1619,416)" d="m0 0h10v28l-1 1h-8l-1-1v-9l-10-6-7-2h-11l-10 3-9 6-6 7-5 11-2 7-1 13 2 13 5 12 6 8 7 6 8 4 3 1h17l11-4 2-4v-9l9-1 1 1v21l-6 3-17 4h-24l-12-3-12-6-10-9-7-9-5-12-2-9v-15l3-13 7-13 9-10 12-8 12-4 5-1h21l12 3 4 2z" fill="#06447D"/>
<path transform="translate(1022,415)" d="m0 0 2 1v29h-8l-2-1v-9l-8-5-9-3h-10l-8 2-10 5-7 8-5 10-3 12v17l4 13 5 9 7 8 11 6 4 1h16l11-4h2v-13l2-1h8v23l-17 5-6 1h-24l-14-4-11-6-10-9-7-11-4-10-1-4v-23l3-10 7-13 6-7 11-8 12-5 9-2h20l16 4v-5z" fill="#04437C"/>
<path transform="translate(1142,414)" d="m0 0h8l1 5 77-1 1-4h8l1 1v27h-10v-9l1-4h-29v91h16v7h-53v-7h16v-91l-28 1v12h-9l-1-1v-26z" fill="#04437D"/>
<path transform="translate(499,206)" d="m0 0 7 1 3-1 14 8 16 12 15 14 9 9 9 11 12 16 15 25 8 15 11 27 8 25 7 28 5 33 2 26v46l-2 25-6 36-6 24-10 30-10 23-11 21-13 20-9 12-9 11-12 13h-2l-1 3-8 7-14 11-13 8-23 11-21 6-12 2h-29l-15-3 2-2 4-2 13 1h22l14-2 15-4 16-6 15-8 16-11 14-12 15-15 13-17 9-13 10-17 9-17 10-24 10-30 6-25 4-22 3-30 1-36-1-23-3-27-5-28-8-30-10-28-12-26-12-21-14-20-11-13-13-14-8-7-17-13-16-9-6-3z" fill="#02287D"/>
<path transform="translate(1378,419)" d="m0 0h45l1 1v5l-3 1h-9v91h35v-12h8l1 1v21h-78v-7h13l-1-21v-73h-12z" fill="#0A487F"/>
<path transform="translate(443,298)" d="m0 0h9l45 12 5 2-1 5-7 8-10 15-8 16-8 20-5 17v2l18 4 12 1h23l21-3 1 1-1 8-11 41-3 7-9 8-5-5-10-11-13-9-16-8-16-5-3 14-8 31h-2l-1-5 13-48 2-1 20 6 21 10 16 11 10 8 2-11 10-36 1-3-11 3-8 1h-25l-20-3-12-3 1-9 9-27 9-19 10-16 9-12 1-2-15-3-32-9-3-1 2 11 1 12v19l-3 24-6 26-3 1-20-7-21-10-12-8-10-9 1-2 4 2 8 7 11 7 19 9 11 4 5 1 1-10 2-11 1-11v-24l-2-16-3-13z" fill="#01407B"/>
<path transform="translate(1469,419)" d="m0 0h46v6l-1 1h-11v94h12l1 2-1 5h-46v-7h13v-94h-12l-1-1z" fill="#01417B"/>
<path transform="translate(441,260)" d="m0 0 13 1 14 4 14 7 12 9 13 12 11 13 14 21 7 12 10 22 4 11v6l-2-3-6-7-8-20-10-19-8-12-10-13-9-10-8-8-14-10-15-7-14-3h-9l-12 2-15 6-11 7-14 12-9 10-11 15-11 18-12 25-8 23v1l8 1-4 17-12 44-5-5-12-15-4-4-9 11-11 13-5 5v-6l3-1v-2l5-3 1-6 8-10 8-9 4 2 9 12 5 6 6-21 7-24-4 1-4 14-5 1-36-1v-2l-4-1 39-1 3-7 6-20 8-21 8-16 9-16 10-14 8-10 8-9 8-7 12-9 16-8 12-3z" fill="#02257C"/>
<path transform="translate(546,561)" d="m0 0h3l-1 4-22 15-6 4-3-1v-3l-4 2-9 13-10 9-15 8-12 3h-12l-14-4-5-6v-8l7-8 8-4 5-1 4 3 4-1 7-4 9 1 16-6 23-7z" fill="#FDFDFD"/>
<path transform="translate(340,524)" d="m0 0h13l8 4 5 5 4 8 1 4v14l-1 7v8l2 5-1 6-4 8-4-1-12-8-10-9-8-10-5-10-1-3v-15l6-9z" fill="#FDFDFD"/>
<path transform="translate(547,370)" d="m0 0 4 2 4 6 6 21v2h45v-8l2 2v6h2l2-2 1 7-10 1v16l2 28-3-1-9-11-12-14-3-3-2 4-10 13-6 7-2-2-15-56 1-3 7 1-4-13z" fill="#013F7B"/>
<path transform="translate(340,511)" d="m0 0h14l9 3 8 6 5 6 4 11 1 6v20l2 2 9 1 1-3 2 2-5 10-2 9v2l2-1 2-8 4-6 3-3 5 1 2 1-1 4-4 7 4 2v2l-4 1-1 5 3 8 5 6-4 1-11-9-5-5-5-7v-16l-4 5-4-1 1-13v-15l-2-9-6-8-5-4-1-5-5-3h-2l5 5-15-2-9 2-8 6-3 4-2 6v14l4 12 7 11 7 9v2l9 3 6 4v2l-5-1-16-9-13-11-7-10-3-9v-17l4-11 9-9 10-5z" fill="#FBFBFC"/>
<path transform="translate(819,295)" d="m0 0 5 2-1 353h-5v-354z" fill="#01417B"/>
<path transform="translate(1862,296)" d="m0 0h5l1 2-1 352h-5z" fill="#01417B"/>
<path transform="translate(1687,296)" d="m0 0h39l10 4 9 7 6 9 2 6v17l-4 10-9 10-10 5-16 2h-25l-2-4 2-1h6v-60l-7-1zm19 5-1 1v58h18l10-5 6-7 3-8 1-12-2-10-6-9-6-5-9-3z" fill="#0F4B82"/>
<path transform="translate(1515,296)" d="m0 0h39l12 5 8 7 7 14v17l-4 10-9 10-9 5-4 1-13 1h-25l-2-1 1-4h8l-1-60-7-1zm19 5-1 1v58h17l8-3 6-5 5-9 1-4v-17l-4-9-6-7-8-4-4-1z" fill="#08467E"/>
<path transform="translate(1316,296)" d="m0 0h38l8 4 4 6 1 3v12l-6 9-8 3 2 5 14 21 1 1 7 1 1 4-1 1h-8l-9-2-11-17-6-10v-2h-9v25l7 1 1 4-1 1h-23l-2-1v-3l2-1h6v-61h-8zm18 5-1 1v27h15l6-4 3-5v-11l-3-5-6-3z" fill="#08467E"/>
<path transform="translate(933,580)" d="m0 0h34l7 2 5 5 3 5 1 7-3 7-5 5-4 1v2l6 2 6 5 3 6v9l-4 8-5 4-7 2h-37v-4l7-1v-60l-8-1zm18 5-1 1v25l3 1 12-1 6-5 1-2v-11l-4-6-7-2zm-1 31v29h16l6-3 4-6v-9l-3-6-6-4-3-1z" fill="#06447D"/>
<path transform="translate(1059,579)" d="m0 0h10l9 3 9 6 7 9 4 12v13l-4 11-4 6-7 7-8 4-4 1h-15l-9-4-8-7-6-9-3-9v-14l4-11 7-9 8-6zm0 6-8 4-6 7-4 10v19l4 10 4 5 8 5 10 1 8-3 5-4 5-8 2-8v-17l-5-12-8-7-4-2z" fill="#07457E"/>
<path transform="translate(1024,296)" d="m0 0h16l10 13 10 14 14 19 3 4 1-46h-7l-2-3 1-1h21v4h-7v18l-1 49-4-2-9-11-12-17-14-19-3-4-1 47h7l1 4-1 1h-19l-3-3 2-2h7l-1-59-9-3z" fill="#09477F"/>
<path transform="translate(1578,580)" d="m0 0h14l5 5 13 18 14 19 6 8 1 1v-47h-8l1-4h19l3 3-1 1-7 1-1 67-5-2-13-18-14-19-11-15-1 48h8v4h-21v-4l7-1v-56l-1-3-9-2z" fill="#08467E"/>
<path transform="translate(1287,293)" d="m0 0 5 1v16h-5v-9h-25v27l18-1h2v-7l5 1v19l-5 1v-8h-20v27h26l-1-7 1-2 5 1v13l-8 1h-39l-2-1 1-4h7v-61h-8v-4l42-1z" fill="#1C5589"/>
<path transform="translate(1632,293)" d="m0 0 4 2 25 65 6 2 1 3-2 1h-22l-2-1 2-4h7l-7-17h-27l-7 17h8l1 4-1 1h-17l-3-1v-3l6-1 3-10 13-32 10-24zm-1 16-4 8-7 17v3h22l-9-26z" fill="#104C82"/>
<path transform="translate(933,296)" d="m0 0h25v4l-7 1v41l2 9 4 5 6 3 8 1 8-2 7-6 2-5 1-41 1-6-9-1v-3h22v4h-8v48l-4 9-7 6-7 3-5 1h-10l-11-4-8-9-2-6v-48h-7l-2-1z" fill="#07467E"/>
<path transform="translate(1502,577)" d="m0 0 3 1 6 14 20 52 7 3v3h-25v-4h8l-7-18-27-1-1 5-6 14h9v4h-21l1-4 5-2 16-40 10-24zm-1 17-4 8-7 17v3h22l-3-10-7-18z" fill="#07457E"/>
<path transform="translate(1717,577)" d="m0 0 3 1 13 33 12 31 2 3 5 1 1 3-1 1h-24v-4h8l-7-18-27-1-3 9-4 10h8v4h-20v-4l6-1 3-9 11-28 12-29zm-2 17-10 25v3h22l-7-20-3-8z" fill="#07457E"/>
<path transform="translate(1433,293)" d="m0 0 3 1v18h-5l-1-7-4-3-3-1h-9l-5 4-1 2v7l5 5 10 7 11 7 5 6 1 2v12l-3 6-7 6-7 2h-10l-10-4-1 4-4-1v-19l5 1 1 8 5 3 4 1h9l6-4 2-3v-6l-4-6-13-8-10-7-4-5-1-2v-12l4-6 6-5 3-1h20z" fill="#05447D"/>
<path transform="translate(534,397)" d="m0 0 4 1-1 8-11 41-3 7-9 8-5-5-10-11-13-9-16-8-16-5-3 14-8 31h-2l-1-5 13-48 2-1 20 6 21 10 16 11 10 8 2-11 10-36 1-3-11 3-8 1h-25l-20-3-5-1v-1h8l2-1 17 2h23z" fill="#00407B"/>
<path transform="translate(439,189)" d="m0 0h9l17 2 17 4 17 6 8 4-1 3-12-3-17-6-15-3-12-1h-14l-21 3-24 8-23 12-12 9-14 12-12 12-9 11-11 15-10 16-4 4h-2l-1 2-3 3 1-5 12-20 12-16 8-10 14-15 10-9 16-12 17-10 16-7 20-6 11-2z" fill="#002F94"/>
<path transform="translate(588,470)" d="m0 0h2l6 13 3 11v13l-4 14-7 16-1 9 4 3v4h-3v-2l-4-1-5 2 1-4 1-5-7-18-1-5v-9l3-10 8-18z" fill="#02277C"/>
<path transform="translate(1157,296)" d="m0 0h28l-1 4h-9l12 31 7 18 2-2 13-34 5-13h-6v-4h18l-1 4-4 1-20 51-7 16h-3l-7-16-16-41-4-10-7-2z" fill="#07457E"/>
<path transform="translate(441,260)" d="m0 0 13 1 14 4 14 7 12 9 13 12 11 13 14 21 7 12 10 22 4 11v6l-2-3-6-7-8-20-10-19-8-12-10-13-9-10-8-8-14-10-15-7-14-3h-9l-12 2-15 6-11 7-14 12-9 10-3 3-4 1v-4l9-10 4-5 8-7 12-9 16-8 12-3z" fill="#02277F"/>
<path transform="translate(1306,580)" d="m0 0h14l2 1v3h-10l18 46 2 4 15-38 5-12h-7l-1-3 13-1 7 1-1 3-5 2-19 49-6 15-2 3-3-1-8-19-16-41-3-7-7-2 1-2z" fill="#0B4880"/>
<path transform="translate(458,212)" d="m0 0h7l21 6 16 8 16 10 11 9 8 7v2l4 2 10 11 13 17 11 17 12 22 11 26 8 25 5 21v7l-3-1-1-8h-2l-8-29-10-28-8-17-11-19-10-15-10-13-14-15-8-8-13-10-16-10-14-6-17-5v-2h-4v-2z" fill="#022680"/>
<path transform="translate(584,549)" d="m0 0 4 2v2h3l1-2 1 2 18 1 2 3-2 3h-27l-12 2-12 4-16 8-12 8-11 9-15 12-15 9-15 6h-5l2-4 6-1v-2l15-8 10-9 10-14h3l1 3 5-2 25-17 1-3h-2v-3l4-2 25-2 3-3z" fill="#04437D"/>
<path transform="translate(296,296)" d="m0 0 1 2-13 25-11 28-7 23-6 26-4 25-3 34v48l-3-4-1 7h-1l-1-19v-29l2-29 4-28 6-28 8-26 9-24 13-27z" fill="#02267C"/>
<path transform="translate(1143,580)" d="m0 0h23l2 1-1 3h-7v61h25l1-10 4 1 1 2v11l-1 1h-48v-4h8l-1-61-7-1v-3z" fill="#104C83"/>
<path transform="translate(489,348)" d="m0 0 3 1-1 5-11 12-7 10 6-4 8-8 9-7 5 1-1 4-11 9-8 7-5 4 6-2 15-10 7-4 3 1 1 3-5 4-13 8-10 6 5-1 21-9 6-1 1 4-4 3-24 9 9-1 16-4h5l1 4-3 2-18 4h-11l-5-2-1-7h-2l-4-6-3-5 2-9 4-6z" fill="#F9CD03"/>
<path transform="translate(430,333)" d="m0 0 4 2 3 16v11l-3 9-10 4-4 4-4 1-12-6-15-15 1-5 4 1 15 15 8 6-6-8-10-12-4-6 1-3 5 1 14 18 4 6 2 1-4-8-10-17-2-3 1-4 3-1 3 3 13 25-1-7-8-20 1-5h4l8 22v-8l-3-12v-4z" fill="#F9CD03"/>
<path transform="translate(580,678)" d="m0 0 1 3-8 11-9 11-12 13h-2l-1 3-8 7-14 11-13 8-23 11-21 6-12 2h-29l-15-3 2-2 4-2 13 1h22l14-2 15-4 16-6 15-8 16-11 14-12 15-15 13-17 6-4z" fill="#02287C"/>
<path transform="translate(379,588)" d="m0 0 4 2 8 10 10 7 10 6-1 20-3 26-9-2-24-6-18-5-1-3 9-19 8-18 7 1 10 6v2l-13 1-6 4-3 5-1 4v7l4 7 6 4 8 2h7l10-4 6-9v-10l-3-9-5-5-10-7-12-6-1-3z" fill="#FDFDFD"/>
<path transform="translate(335,390)" d="m0 0h4l-1 7-9 31-2 8-5-4-12-16-4 2-11 13-4 5h-2l1-26 1-3 2-1 37-1 4-14z" fill="#F9CD03"/>
<path transform="translate(550,389)" d="m0 0 4 4 3 13h38l2 1 2 22v7l-4-2-14-17v-2l-5 3-6 8-4 5-3 4h-2l-7-24-5-16v-5z" fill="#F9CD03"/>
<path transform="translate(1114,296)" d="m0 0h26l-1 4h-7v61h7l1 4-1 1h-21l-4-1 1-4h7v-61h-8l-1-3z" fill="#08467E"/>
<path transform="translate(1229,581)" d="m0 0h27v3l-7 1-1 60 7 1 1 4h-26v-4h8v-62h-8z" fill="#04437C"/>
<path transform="translate(1465,296)" d="m0 0h26v4h-8v61h7l1 4-3 1h-20l-3-1v-3l2-1h7l-1-9v-16l1-36h-8z" fill="#0C4980"/>
<path transform="translate(1404,580)" d="m0 0h24v4l-7 1-1 61h8v4h-24l-1-4h8l-1-61-7-1z" fill="#09477F"/>
<path transform="translate(493,154)" d="m0 0h7l8 5 3 5v9l-3 6-6 5-2 1-9-1-6-4-3-4v-10l3-6 6-5z" fill="#002D96"/>
<path transform="translate(660,540)" d="m0 0 10 2 5 5 2 3v10l-4 6-5 3h-10l-7-4-4-5v-10l4-6 5-3z" fill="#002D95"/>
<path transform="translate(326,191)" d="m0 0 9 2 6 7 2 6-1 7-5 6-6 3-7-1-8-6-3-5v-8l4-6 5-4z" fill="#002E95"/>
<path transform="translate(227,355)" d="m0 0h7l7 3 5 5 1 2-1 10-2 9-2 1-26-7-1-4 4-12 4-5z" fill="#002D96"/>
<path transform="translate(438,210)" d="m0 0h10l12 1v2l2 1v2l4 1h-37l-18 4-16 6-14 8-14 10-12 11-12 12-3 1-2-1 2-4 9-10 7-7 11-9 13-9 17-9 17-6 14-3z" fill="#022A7D"/>
<path transform="translate(247,297)" d="m0 0h8l9 5 3 5v8l-5 12-7-1-20-9-1-3 7-13z" fill="#002E95"/>
<path transform="translate(655,486)" d="m0 0h25l3 1v17l-3 5-6 1-6-4-2 4-1 1-7-1-3-3-1-3v-17z" fill="#003190"/>
<path transform="translate(456,146)" d="m0 0 15 2 5 2 1 2v6l-2 5 2 4-1 6-3 4h-12l-9-2v-8l3-20z" fill="#002E95"/>
<path transform="translate(355,752)" d="m0 0 5 1 3 2-1 12-1 9 9-10 5-4 8 4-1 4-6 11-7 11-5-2 1-4 9-14-3 1-5 6-9 7-4-2 1-10 1-9-8 14-5-1 1-5z" fill="#022680"/>
<path transform="translate(416,777)" d="m0 0h7l2 1 4 17h2l6-15 1-1h8l1 4-2 24-4 2-3-2 3-17-3 3-7 15-5-1-4-15v-2h-3v16l-3 1-3-1v-8l2-20z" fill="#02277C"/>
<path transform="translate(544,385)" d="m0 0 8 1 1 3-3 1 1 8 9 31 1 6 4-4 9-11 4-5h3l11 14 5 6 3 9 3 1 2 3v3l-3-1-9-11-12-14-3-3-2 4-10 13-6 7-2-2-15-56z" fill="#02297C"/>
<path transform="translate(375,208)" d="m0 0 6 2-4 3-13 8-13 10-13 12-8 8-9 11-11 15-10 16-4 4h-2l-1 2-3 3 1-5 12-20 12-16 8-10 14-15 10-9 16-12z" fill="#022A7E"/>
<path transform="translate(639,637)" d="m0 0 1 4-2 6 1 5 10 6v2l-13 2-2 4-2 9h-2l-5-11-3-1-12 1 2-4 7-5 1-4-5-9v-2l5 1 6 4 5-1z" fill="#013E7C"/>
<path transform="translate(246,638)" d="m0 0 4 1 6 6 7-1 7-5h2l-2 6-4 6v4l4 2 6 5v2l-14-1-6 12h-2l-3-12-7-2-7-1v-2l11-6-1-9z" fill="#013F7B"/>
<path transform="translate(211,430)" d="m0 0h6l3 2 15-1v6l-9 1-2 1-1 10h11v6l-3 1-25-2-2-4 2-14 2-5z" fill="#002F94"/>
<path transform="translate(354,515)" d="m0 0 5 1 4 3v5l4 2 5 5 1 11-4-1-4-8-1-3-4-2-7-3h-13l-7 4-5 8v15l1 8 7 11 4 6h-5l-9-14-4-12v-14l4-9 8-7 5-2 9-1 11 2z" fill="#02237C"/>
<path transform="translate(539,570)" d="m0 0m-1 1m-2 1h8v2l-12 8-11 9-15 12-15 9-15 6h-5l2-4 6-1v-2l15-8 10-9 10-14h3l1 3 5-2z" fill="#013E7B"/>
<path transform="translate(230,531)" d="m0 0h7v7l-13 11-3 3 10-2h9v5l-7 2-17 3-5-1-1-4 6-7 10-8 1-2-13 3h-6l-1-3 1-3 13-3z" fill="#01407B"/>
<path transform="translate(507,689)" d="m0 0 6 1 2 2v5l-5 4-15 5-18 3-12 1h-30l-18-2-3-2v-2h56l22-3 16-5 2-1 1-4h-4z" fill="#01417B"/>
<path transform="translate(487,281)" d="m0 0 4 2 3 1v2l4 2 4 3v2h2l1-2 10 11 12 17 9 15 8 16 8 19 1 9-2-3-6-7-8-20-10-19-8-12-10-13-9-10-8-8z" fill="#02287D"/>
<path transform="translate(251,501)" d="m0 0h1l2 9 4 33 6 29 7 24-1 7 1 4-2 1-7-21-8-33-4-26-1-8v-18z" fill="#012C8A"/>
<path transform="translate(670,385)" d="m0 0h5v6l-5 6-10 8-1 2 10-3 8-1 2 2-1 4-8 2-17 3-4-1 1-7 14-12 1-1-8 1-10 2-2-4 1-2 16-4z" fill="#002D97"/>
<path transform="translate(664,431)" d="m0 0h18v19l-5 4-6 1-6-4-2-9v-4l-10 1-1-1v-5l1-1z" fill="#013E7C"/>
<path transform="translate(609,241)" d="m0 0h4l1 7-4 10-4 8 11-8 6-2 1 5-16 12-5 3-4-1-1-1 1-7 4-9 4-8-6 4-9 7-4-2 1-4 15-11z" fill="#002C97"/>
<path transform="translate(589,485)" d="m0 0 3 1 2 7v16l-9 23-4-1-3-9v-12l5-12z" fill="#F9CD03"/>
<path transform="translate(506,692)" d="m0 0h5l-1 4-10 4-20 4-10 1h-40l-21-3-5-3 1-3 29 4h34l23-3 13-4z" fill="#FDFDFD"/>
<path transform="translate(333,707)" d="m0 0h2l6 7 11 9 10 8 18 11 15 7 15 5 9 2v3l-9 1-15-5-21-10-14-9-14-11-6-7v-2h-2l-5-7z" fill="#002D96"/>
<path transform="translate(431,683)" d="m0 0h10l11 1h13l9-1 1 3-1 6-1 4-2-2-1-4-2-1 1 7h-3l-1-6h-6v7l-4-1v-6h-2v7h-3v-7h-2v7h-3l-1-6-1 1v5l-1 1-9-1-1-5v-5z" fill="#FDFDFD"/>
<path transform="translate(630,275)" d="m0 0 5 1 2 5-7 8-12 14-4-1 1-5 2-5-4-7h-6l-4-4 1-2 9-2z" fill="#013E7C"/>
<path transform="translate(638,360)" d="m0 0h16l14 2 2 2v5l-13 10-11 7-3-2 1-4 4-3-2-10-7-3z" fill="#013C7B"/>
<path transform="translate(247,331)" d="m0 0h11l1 4-5 3-4 1-3 9 5 4-1 5h-3l-11-9-10-8-1-5 3-3z" fill="#002D93"/>
<path transform="translate(594,222)" d="m0 0 4 1 2 2-1 5-10 19-3 4-4-2 1-5 1-4-6-6-8 1-3-4 4-3z" fill="#022881"/>
<path transform="translate(415,148)" d="m0 0h5l4 5 11 20-1 3-5-1-5-5-9 1-2 8-4 1-1-5 5-24z" fill="#002D95"/>
<path transform="translate(281,234)" d="m0 0 12 3 17 5v4l-2 2-8-1-4 6h-2l3 6-1 5-3 1-14-23-1-4z" fill="#003D7F"/>
<path transform="translate(216,400)" d="m0 0 4 2-3 5-3 3v6l4 1 2-7 5-8 6-1 5 2 3 5-1 10-4 6-7 2-1-4 5-4 2-4v-6l-5 1-5 10-4 4-7-1-3-3-1-9 3-6z" fill="#002D96"/>
<path transform="translate(1304,388)" d="m0 0h18l-1 3-8 7-6 7h-2v2l-5 4-3 3-4 1h-8l4-7 12-16z" fill="#07467E"/>
<path transform="translate(466,303)" d="m0 0 9 1 25 7 2 1-1 5-7 8-10 15-8 16-8 20-5 17v2l11 3 1 2-16-2 1-9 9-27 9-19 10-16 9-12 1-2-15-3-15-4v-2z" fill="#012E85"/>
<path transform="translate(230,564)" d="m0 0h9l4 4 3 8-1 8-6 4-15 4h-6l-1-3 2-3 19-5h2l-1-8-1-2h-8l-11 3h-5l-1-5 8-3z" fill="#002D96"/>
<path transform="translate(205,461)" d="m0 0 4 1 1 15 5-1 1-13 5-1v14l4 1h3v-15h5v21h-28l-1-1v-20z" fill="#002E94"/>
<path transform="translate(331,305)" d="m0 0 7 1 5 4 9 4 1 3-4 2-3-2-6-1-2 5v3l6 3v4h-4l-17-9-2-4 8-11z" fill="#002E90"/>
<path transform="translate(518,260)" d="m0 0 5 1 8 9 1 6-7 6h-2l-2 5-3 3-4-1 1-4 4-5-5-6-3 1-3 4-5-1v-3l5-5z" fill="#002F92"/>
<path transform="translate(650,328)" d="m0 0h6l5 6 1 2v10l-2 3-5-1 1-5 1-4-2-4h-4l-1 17-3 3h-7l-6-5-2-4v-9l4-5 4 1-1 5-2 2 1 6 3 3 3-1 1-16z" fill="#002E94"/>
<path transform="translate(470,432)" d="m0 0 6 1 6 4 12 13 4 3-1 5-5-2-19-19h-2l8 10 9 12 2 5-4 2-7-8-13-18-2-4z" fill="#F9CD03"/>
<path transform="translate(395,415)" d="m0 0h12l4 6v3l-10 4-19 9-5 1-1-5 14-7 14-5h2l-2-2-29 8h-2l-1-5 15-5z" fill="#F9CD03"/>
<path transform="translate(580,678)" d="m0 0 1 3-8 11-9 11-12 13h-2l-1 3-8 7-14 11-5 1-2-2 5-5 11-8 13-12 11-11 13-17 6-4z" fill="#002C96"/>
<path transform="translate(394,770)" d="m0 0 8 2 6 5 1 2v6l-4-1-5-7-5-1-5 3-2 4v8l4 4h6l5-4 3 1-1 5-5 4h-9l-6-4-4-6v-9l5-8 4-3z" fill="#002D96"/>
<path transform="translate(385,155)" d="m0 0h8l6 4v4h-5l-3-2h-6l-3 3-1 7 3 5v2l3 1h7l3-4 2-5 4-1v7l-3 6-5 3-8 1-8-5-4-8v-8l4-6z" fill="#002E95"/>
<path transform="translate(272,255)" d="m0 0 4 1-1 4-9 4-1 1v7l7 6h7l4-3v-6l-2-3 1-5 4 1 3 6-1 9-5 5-5 3-8-1-6-4-5-6-1-6 4-8 6-4z" fill="#002F94"/>
<path transform="translate(493,770)" d="m0 0h4l-1 5-3 8 1 4 11 9 1 2-6 1-6-4-5-3-2 9-4 4-3-1 4-13v-5l-10-8v-3l7 1 5 4h2l3-8z" fill="#002D94"/>
<path transform="translate(555,185)" d="m0 0 4 1 1 1-1 7-5 11v3l8-6 8-5 4 1 2 3-9 6-11 7-4 3-4-1-3-3 1-5 6-15z" fill="#02287D"/>
<path transform="translate(204,490)" d="m0 0 9 1 19 5 2 1v7l-11 5-15 6h-3v-6l9-4 9-3 1-2-19-4-1-1z" fill="#002D96"/>
<path transform="translate(584,321)" d="m0 0h2l10 23 10 30 5 21v7l-3-1-1-8h-2l-8-29-6-17-2-9-4-11-1-1z" fill="#002F92"/>
<path transform="translate(520,758)" d="m0 0h3l3 15 1 15-3 2-5-1-15-16-3-3 1-4 5 1 8 8 4 5 2 1-4-18 1-4z" fill="#003F7C"/>
<path transform="translate(400,556)" d="m0 0 4 1 8 6 11 4 16 3h30l16-1-3 3-10 2-10 1h-21l-15-2-12-4-8-4-6-5z" fill="#FDFDFD"/>
<path transform="translate(443,226)" d="m0 0 3 1 2 13v11h-6l-9-13-2-1 1 9 1 6-4 1-2-3-2-21 1-1h5l10 12v2h2l-2-15z" fill="#002D96"/>
<path transform="translate(654,454)" d="m0 0 11 3 17 6 2 2-1 5-4 3-20 8h-5v-5l6-3 9-2 5-2-2-4-2-1h-6l-2 4-1-6-7-3-1-3z" fill="#002D97"/>
<path transform="translate(308,415)" d="m0 0 4 2 12 16 3 8 3-3-1 9-5-5-12-15-4-4-9 11-11 13-5 5v-6l3-1v-2l5-3 1-6 8-10z" fill="#022781"/>
<path transform="translate(280,401)" d="m0 0h43v1l-33 1v2h36v1l-35 1-1 23-1 6 3-1v5l-4 3h-2v2h-2v-14l2-24-6-1z" fill="#01407B"/>
<path transform="translate(318,326)" d="m0 0 4 1-1 5-3 4-1 5h5l2-6 3-4 4 1-2 6-3 4v2l6 1 1-5 2-5h5l-1 7-5 10-6-1-16-7-1-4z" fill="#002D95"/>
<path transform="translate(340,507)" d="m0 0h11l12 3 9 6 2 2-1 3-9-5-6-3-4-1h-14l-9 3-8 5-7 8-4 10-2-2 1-9 3-6 8-7 10-5z" fill="#002F92"/>
<path transform="translate(556,312)" d="m0 0h6l2 2-1 5-10 11-5 6-3-1 1-5 2-2-1-4-3-4-7-1-1-4 11-2z" fill="#013D7C"/>
<path transform="translate(504,246)" d="m0 0 3 2v7l-5 18-2 1-3-3v-6l-4-3-10 2v-4l15-11z" fill="#002D91"/>
<path transform="translate(577,348)" d="m0 0h3l5 13v5l-4-1-4-9v-2l-4 1 1 5 2 7-4 1-5-10-4 1 1 5 3 7-4 2-3-5-4-10 1-3z" fill="#003190"/>
<path transform="translate(494,159)" d="m0 0 7 1 4 4v8l-3 5-4 3-7-1-4-5v-6l4-6z" fill="#F9CD03"/>
<path transform="translate(325,196)" d="m0 0 5 1 5 4 3 6-1 5-4 4h-7l-6-5-2-3v-6l5-5z" fill="#F9CD03"/>
<path transform="translate(364,262)" d="m0 0 10 3 14 7v3l-4 1-6-1-3 4h-2l2 5-1 4h-3l-7-15-2-8z" fill="#002E91"/>
<path transform="translate(658,546)" d="m0 0 9 1 5 5 1 5-4 5-2 1h-8l-5-3-3-4 1-5z" fill="#F9CD03"/>
<path transform="translate(578,415)" d="m0 0h3l11 14 5 6 3 9 3 1 2 3v3l-3-1-9-11-12-14-3-3-2 4-8 11-4-1 1-5 9-11z" fill="#022782"/>
<path transform="translate(375,762)" d="m0 0 8 4-1 4-6 11-7 11-5-2 1-4 9-14-3 1-5 6-5 1 2-7 10-10z" fill="#002C95"/>
<path transform="translate(340,386)" d="m0 0h5l-4 17-10 37-4 2-3-5 1-3 1 1 6-21 7-24-4-1h5z" fill="#022980"/>
<path transform="translate(386,244)" d="m0 0h8l1 4-3 1h-5l-3 3v2l7-1 9-1 3 3 1 7-4 5-4 2h-8l-3-4 4-1 8-1 2-6-7 2h-10l-3-4 1-5 4-5z" fill="#002E94"/>
<path transform="translate(292,656)" d="m0 0 4 4 9 13v2h4l11 15 9 11 5 6 2 5 2 4h2l3 5-4-2-13-13-9-11-10-13-11-17-4-7z" fill="#02277F"/>
<path transform="translate(453,190)" d="m0 0 12 1 17 4 17 6 8 4-1 3-12-3-17-6-15-3-12-1h-23v-1l8-1h19z" fill="#002F91"/>
<path transform="translate(653,515)" d="m0 0 26 2 3 2-1 5h-10l-14-1v12l-1 1h-5l-1-3 2-16z" fill="#002E95"/>
<path transform="translate(454,778)" d="m0 0h4l3 23 13-1 2 5-1 1-19 2-2-6-2-17v-5z" fill="#02277C"/>
<path transform="translate(473,232)" d="m0 0h6l7 6 2 6-4 1-5-7-4-1-5 4-2 4 1 5 4 3 5-1 3-2h3l-1 5-5 3-9-1-6-7v-7l4-7z" fill="#002E94"/>
<path transform="translate(523,164)" d="m0 0 4 2-1 5-9 16v2l11 5v5l-5-1-15-8 2-5 6-10 5-10z" fill="#002E94"/>
<path transform="translate(305,208)" d="m0 0 2 1-1 5-3 3-1 3 4 2 10 9 3 2-1 4-4 1-15-15-3 1-4 5-4-1 2-5 12-13z" fill="#002D97"/>
<path transform="translate(458,212)" d="m0 0h7l21 6 16 8 14 9v2l-5-2-3-1-4-1-16-8-18-6-4-1v-2h-4v-2z" fill="#002F94"/>
<path transform="translate(336,520)" d="m0 0 2 1-3 4h-2l-2 4-3 3v20l1 8 7 11 4 6h-5l-9-14-4-12v-14l4-9 8-7z" fill="#022A7C"/>
<path transform="translate(227,361)" d="m0 0h7l6 3 2 3-1 9-4 1-16-4 1-6z" fill="#F9CD03"/>
<path transform="translate(249,302)" d="m0 0 5 1 5 3 3 3v6l-3 5-5-1-12-5-1-4 6-7z" fill="#F9CD03"/>
<path transform="translate(308,347)" d="m0 0 4 2 13 10 4 3-1 5-1 1h-16l-9-1v-4l1-1h8l9 1-4-4-9-7z" fill="#002F94"/>
<path transform="translate(337,180)" d="m0 0 5 1 7 10 4 7 9-5 5-1 1 4-16 10h-2l-8-13-6-9z" fill="#002D94"/>
<path transform="translate(450,262)" d="m0 0h9l16 6 14 9 14 12 1 4h-2v-2l-4-2-4-3v-2l-4-1-8-4-10-6-12-5-5-1v-2l-5-2z" fill="#002E94"/>
<path transform="translate(654,487)" d="m0 0h24l-4 4h-3l-1 5h-2l-3-3-6-1 1 11 5 1v3l1 3-1 1-7-1-3-3-1-3z" fill="#002A9C"/>
<path transform="translate(507,689)" d="m0 0 6 1 2 2v5l-5 4-8 3-11 1-12 2-9 1h-28v-1l31-2 14-3 19-5 4-2 1-4h-4z" fill="#02247C"/>
<path transform="translate(621,256)" d="m0 0 3 1-1 5-11 8-9 6-4-1-1-1 1-7 2-6 1 3 4-1v3l11-8z" fill="#02297C"/>
<path transform="translate(330,386)" d="m0 0h2v2h2l-1 9-3 9-40-1v-2l-4-1 39-1 3-7z" fill="#00299D"/>
<path transform="translate(628,718)" d="m0 0 2 1-2 4h-2l-2 4-9 13-3 3h-2v3l-4 1-2 5-7 7h-2l-1 3h-2v2l-5 2v2l-8 6-11 9-4 3-3-1 14-11 13-11 20-20 9-11z" fill="#02277C"/>
<path transform="translate(410,425)" d="m0 0 4 1 1 4-8 4-20 15-4-1-1-4 13-9 14-9z" fill="#F9CD03"/>
<path transform="translate(415,148)" d="m0 0h5l4 5 6 11-1 5h-3v-5l-4 2-7 2-1-19z" fill="#013F7B"/>
<path transform="translate(547,370)" d="m0 0 4 2 4 6 6 21-1 5 3-1 2 1 25 1v1h-33l-5-15-1-2h2l-3-7-3-9z" fill="#01407B"/>
<path transform="translate(466,303)" d="m0 0 9 1 25 7 2 1-1 5-7 8-10 15-4 4-1-2 7-12 11-15 1-2-15-3-15-4v-2z" fill="#00348E"/>
<path transform="translate(453,441)" d="m0 0 4 1 10 31-1 4-5-1-8-29-2-3z" fill="#F9CD03"/>
<path transform="translate(224,518)" d="m0 0h11l1 6-22 3h-7l-1-1v-5l8-2z" fill="#013E7B"/>
<path transform="translate(415,430)" d="m0 0 3 2-1 4-17 17h-2l-2 4-4 2-2-2 1-4 12-12 8-7z" fill="#F9CD03"/>
<path transform="translate(460,438)" d="m0 0h4l4 9 8 15 3 9-5 1-8-15-7-15z" fill="#F9CD03"/>
<path transform="translate(213,386)" d="m0 0 11 1 18 4-1 6-2 1-27-6z" fill="#002E95"/>
<path transform="translate(567,324)" d="m0 0 4 4 6 12v4l-4-1-3-4v-2l-15 8h-5l-1-3 15-8 3-2-2-6z" fill="#002E95"/>
<path transform="translate(336,515)" d="m0 0h7l-1 2-13 5-8 10-2 5v14l4 13-1 2-5-8-2-6v-15l4-9 5-7z" fill="#012B83"/>
<path transform="translate(375,208)" d="m0 0 6 2-4 3-13 8-13 10-3 2-6 1 2-4 12-10 15-10z" fill="#02287F"/>
<path transform="translate(345,232)" d="m0 0h3v2l-8 7-10 10-2 3-5 3-6 8h-2l1-5 7-9 14-15 3-3z" fill="#002D96"/>
<path transform="translate(546,178)" d="m0 0 4 1-1 6-10 14-4 6-4-1-1-4 7-10 7-11z" fill="#002C92"/>
<path transform="translate(354,272)" d="m0 0 4 2-2 4-3 4 4 2 11 9v3l-3 1-11-9-4-3h-2l-2 4h-4l1-4 9-10z" fill="#002D8E"/>
<path transform="translate(415,576)" d="m0 0h3l-1 5-3 5-1 4v7l3 8 7 6 5 3v2l-5-1-9-5-6-12v-12l5-6z" fill="#FDFDFD"/>
<path transform="translate(544,286)" d="m0 0 5 5 8 12v2l-5-1-3-4-4 2-10 8-3 1-2-2v-3l11-7 3-2-1-10z" fill="#002F93"/>
<path transform="translate(529,752)" d="m0 0 3 1 7 12 6 9-1 5h-4l-14-22 1-4z" fill="#002D98"/>
<path transform="translate(580,205)" d="m0 0 4 3-2 4-16 16-4 1-2-4 4-2 2-4z" fill="#002B96"/>
<path transform="translate(363,165)" d="m0 0 4 4 10 20v3l-5 1-10-19-3-7z" fill="#002D95"/>
<path transform="translate(675,403)" d="m0 0 4 2-1 4-8 2-17 3-4-1v-5l2 4h2l2-5 4-2v2l10-3z" fill="#013F7B"/>
<path transform="translate(416,777)" d="m0 0h7v3l-3-1 1 5-1 1-1 21-3 1-3-1v-8l2-20z" fill="#022C7C"/>
<path transform="translate(630,281)" d="m0 0h5l-2 5-11 12-4 5-4-1 1-5 2-3 1-6h5l6-5z" fill="#002C95"/>
<path transform="translate(373,621)" d="m0 0h3v3l-2 1 1 5 2 4 2 8 5 1 4-1 2 1v3h-10l-7-4-4-6v-10z" fill="#FDFDFD"/>
<path transform="translate(545,715)" d="m0 0 3 1-2 5-12 11-7 5-5 1-2-2 5-5 11-8z" fill="#002B94"/>
<path transform="translate(377,357)" d="m0 0 4 2 8 7 11 7 19 9 5 3v1l-7-1-19-9-12-8-10-9z" fill="#022B7C"/>
<path transform="translate(450,449)" d="m0 0 2 4 3 21-1 5-5-1-2-13v-10z" fill="#F9CD03"/>
<path transform="translate(668,365)" d="m0 0h1v5l-19 14-5 2-2-2 1-4 5-2h3v-3l4-1v-2l3-2h3l2-4z" fill="#002B96"/>
<path transform="translate(584,321)" d="m0 0h2l10 23 2 7h-2l3 11v3h2l-1 6-2-4-7-20-2-9-4-11-1-1z" fill="#002C98"/>
<path transform="translate(594,222)" d="m0 0 4 1v4l-9 1v2l-8 1v2l-12 3-2-3 4-3z" fill="#002C98"/>
<path transform="translate(443,226)" d="m0 0 3 1 2 13v11h-6l-5-8 6-1-2-15z" fill="#013E7B"/>
<path transform="translate(415,441)" d="m0 0h2l-1 7-13 18-4-1v-4l12-15z" fill="#F9CD03"/>
<path transform="translate(281,234)" d="m0 0 12 3 17 5v4l-2 2-4-1v-2l-5-1-8-3-12-2 1-4z" fill="#002E95"/>
<path transform="translate(492,679)" d="m0 0 5 1 5 3 2 5-7 3-5-1v-4l-11 2 1-3 6-3z" fill="#FDFDFD"/>
<path transform="translate(585,422)" d="m0 0 5 5 7 8 3 9 3 1 2 3v3l-3-1-9-11-12-14v-2z" fill="#02287D"/>
<path transform="translate(251,501)" d="m0 0h1l2 9 1 10v12h-2l-1 3-2-7-1-8v-18z" fill="#02297C"/>
<path transform="translate(243,334)" d="m0 0 5 2 6 1-4 2-3 7-2 2-3-2v-2l-5-2-4-3 1-4h8z" fill="#013E7B"/>
<path transform="translate(587,483)" d="m0 0h1v6l-8 18-2 4-3-3-1-2 5-12 5-9z" fill="#02267C"/>
<path transform="translate(588,470)" d="m0 0h2l6 13 1 6-2 4h-2l-2-7-2-1-1 2-1-3-3 1 3-12z" fill="#013E7B"/>
<path transform="translate(451,424)" d="m0 0h2v7l-10 38h-2l-1-5z" fill="#013A7C"/>
<path transform="translate(261,574)" d="m0 0 2 1 1 5 2-1 5 17-1 7 1 4-2 1-7-21-2-8z" fill="#022C7E"/>
<path transform="translate(216,533)" d="m0 0h15l-2 4-11 3-10 1-1-3 1-3z" fill="#002E96"/>
<path transform="translate(280,241)" d="m0 0 1 2 3-1 4 4 2 5h2l1 5h2l2 3-1 5-3 1-13-21z" fill="#002C95"/>
<path transform="translate(413,231)" d="m0 0 4 2 6 18-1 5-4-1-7-22z" fill="#002E94"/>
<path transform="translate(280,401)" d="m0 0h43v1l-33 1v2h36v1l-39 1v6h-1v-6l-6-1z" fill="#00407B"/>
<path transform="translate(323,316)" d="m0 0h4v3h3v2l6 1v2l7 2 2 4-4 2-19-11v-4z" fill="#002D96"/>
<path transform="translate(337,293)" d="m0 0 4 1 15 10 3 3-2 3-5-1-13-10-3-2z" fill="#002E94"/>
<path transform="translate(538,279)" d="m0 0 4 2-2 4-10 8-6 5-4-2 2-4 11-9z" fill="#002D97"/>
<path transform="translate(367,268)" d="m0 0 6 1 7 4-5 6h-2l2 5-1 4h-3l-3-6 1-4 1-1-3-6z" fill="#022B7C"/>
<path transform="translate(502,766)" d="m0 0 5 1 8 8 5 8v2l-4-1-10-9-5-5z" fill="#002B97"/>
<path transform="translate(508,233)" d="m0 0 5 2 6 2 3 3v2l3 3v2l5 2 5 4v2l3 1v2h2l3 5v3l-17-17-13-10-6-4z" fill="#02297E"/>
<path transform="translate(575,507)" d="m0 0 2 1 1 3 2 15 1 7-3 3-4-11-1-5v-9z" fill="#022E7C"/>
<path transform="translate(570,197)" d="m0 0 4 1 2 3-9 6-5 3-5 1-1-3 4-5z" fill="#002C96"/>
<path transform="translate(325,514)" d="m0 0 4 2-6 4-7 8-4 10-2-2 1-9 3-6 5-5z" fill="#02277F"/>
<path transform="translate(424,778)" d="m0 0 2 3 2 10-2 14h-1l-3-15h-3v-5l1-4v-2z" fill="#01417B"/>
<path transform="translate(323,548)" d="m0 0 5 4 1 8 7 11 4 6h-5l-9-14-3-8z" fill="#02257C"/>
<path transform="translate(305,208)" d="m0 0 2 1-1 5-8 7-6 8-4-1 2-5 12-13z" fill="#002E96"/>
<path transform="translate(401,619)" d="m0 0 3 1 1 5 3 1v10l-6 9-3 2h-8l2-4 5-1 5-5 1-2v-8z" fill="#01337B"/>
<path transform="translate(333,707)" d="m0 0h2l6 7 11 9 2 3v2l5 5h-3l-11-9-5-6v-2h-2l-5-7z" fill="#002A93"/>
<path transform="translate(555,185)" d="m0 0 4 1 1 1-1 7-4 9-5-1 1-7z" fill="#002B93"/>
<path transform="translate(519,735)" d="m0 0 6 3-11 7-8 4h-2v-2l-3 1-1-2 15-8z" fill="#02277E"/>
<path transform="translate(372,617)" d="m0 0h4l-2 4-4 5v10l4 6-1 2-5-2-3-6v-7l3-8z" fill="#013380"/>
<path transform="translate(423,162)" d="m0 0 1 2h2l2 4 1-2h2l4 7-1 3-5-1-5-5-9 1-1 2 1-5 7-3z" fill="#022F7C"/>
<path transform="translate(664,394)" d="m0 0 4 1v3l-8 7-5 3-2 4h-2l-1-6z" fill="#002B9A"/>
<path transform="translate(500,253)" d="m0 0 3 1v8l-3 8-3 1v-6l-4-3-4-2 6-2v-2z" fill="#012E80"/>
<path transform="translate(654,487)" d="m0 0h1v10l4-1 1 7 5 1v3l1 3-1 1-7-1-3-3-1-3z" fill="#013A7B"/>
<path transform="translate(401,585)" d="m0 0h5l2 5v8l-2 2-4-1-3-8 1-5z" fill="#01387B"/>
<path transform="translate(660,461)" d="m0 0 3 3 1-1h6l4 3v3l-5 3-7 2-1-1z" fill="#013D7B"/>
<path transform="translate(375,762)" d="m0 0 3 1-2 4-6 8-6 5h-3l2-7 10-10z" fill="#002B97"/>
<path transform="translate(362,524)" d="m0 0 4 1 6 6 1 11-4-1-4-8-1-3-4-2-1-3z" fill="#02247C"/>
<path transform="translate(596,489)" d="m0 0 2 1 1 4v13l-2 6h-2l-1-3v-17z" fill="#002F94"/>
<path transform="translate(678,431)" d="m0 0h4v19l-3 3-4-1-1-3h2l2-17z" fill="#002E96"/>
<path transform="translate(559,400)" d="m0 0 4 1 31 1-2 3h-27l-3-1h-3z" fill="#0028A0"/>
<path transform="translate(439,189)" d="m0 0h9l8 2-1 3h-27l-2-3 1-1z" fill="#002C99"/>
<path transform="translate(460,163)" d="m0 0 10 2 1 1v5l-1 1h-10l-2-1v-6z" fill="#F9CD03"/>
<path transform="translate(520,240)" d="m0 0 4 1 8 7 5 4v2l4 2 9 10-1 2-5-3-4-4v-3h-2l-6-7-7-4z" fill="#002D98"/>
<path transform="translate(560,700)" d="m0 0 2 4-4 6-6 6h-2l-1 3h-2l-1-5z" fill="#02257E"/>
<path transform="translate(621,256)" d="m0 0 3 1-1 5-10 7-5-1 2-5 9-6z" fill="#002C97"/>
<path transform="translate(399,620)" d="m0 0 5 4 1 3v8l-5 7-5 2-2-2v-4l9-1-2-11z" fill="#FDFDFD"/>
<path transform="translate(230,583)" d="m0 0 4 1-2 2 4 3-12 3h-6l-1-3 2-3z" fill="#01407B"/>
<path transform="translate(670,437)" d="m0 0h6l2 3-1 7-1 1h-6l-2-5v-5z" fill="#F9CD03"/>
<path transform="translate(211,436)" d="m0 0 7 1 1 5-1 6h-8v-9z" fill="#F9CD03"/>
<path transform="translate(289,406)" d="m0 0h2l-1 24-4 1v-18l1-6z" fill="#02257D"/>
<path transform="translate(670,385)" d="m0 0h5v6l-5 6-5-4-3-2 3-3-3-2z" fill="#012C80"/>
<path transform="translate(659,492)" d="m0 0h6l2 1v7l-2 4-4 1-2-2-1-8z" fill="#F9CD03"/>
<path transform="translate(507,689)" d="m0 0 6 1 2 2v5l-5 4-8 3h-8l4-2h4l1-4 7-3 1-4h-4z" fill="#012B85"/>
<path transform="translate(230,531)" d="m0 0h7v7l-6 5-2-1v-2h-2v-2l-3-1 6-2 1-2h-10v-1z" fill="#022A7C"/>
<path transform="translate(556,312)" d="m0 0h6l1 4h-4l-14 1-1 1h-8v-3l11-2z" fill="#002D98"/>
<path transform="translate(454,671)" d="m0 0h8l3 3v3l-2 1h-12l-1-4z" fill="#FDFDFD"/>
<path transform="translate(597,407)" d="m0 0h4v31h-1l-2-9-1-12z" fill="#022782"/>
<path transform="translate(226,540)" d="m0 0h3l1 4-8 6-6 5h-2l-1-4z" fill="#002B98"/>
<path transform="translate(593,509)" d="m0 0 2 1v3h2l-3 10-4 7-3-3 1-5z" fill="#02277D"/>
<path transform="translate(320,697)" d="m0 0 3 1v2l4 2h3l4 5 2 5 2 4h2l3 5-4-2-13-13-6-7z" fill="#02297C"/>
<path transform="translate(454,778)" d="m0 0h4l1 5v15l-2-3v-4h-2l-1 2-1-7-1-1v-5z" fill="#002E93"/>
<path transform="translate(217,462)" d="m0 0h4v14l1 2h-6l-1 1h-5l4-2 1-1 1-13z" fill="#013D7B"/>
<path transform="translate(463,379)" d="m0 0h2l1 3-3 13 11 3 1 2-16-2 1-9z" fill="#013E7B"/>
<path transform="translate(493,607)" d="m0 0 1 2-3 3-15 6h-5l2-4 6-1v-2l10-2z" fill="#02267C"/>
<path transform="translate(216,400)" d="m0 0 4 2-3 5-3 3-1 6-3-2-2 2 1-9 5-6z" fill="#002D90"/>
<path transform="translate(318,535)" d="m0 0 1 2v14l4 13-1 2-5-8-2-6v-15z" fill="#01417B"/>
<path transform="translate(352,283)" d="m0 0 5 1 11 9v3l-3 1-11-9-2-2z" fill="#002C97"/>
<path transform="translate(520,758)" d="m0 0h3l1 5v9l-2 2-1 2-2-2-2-13z" fill="#002A92"/>
<path transform="translate(426,233)" d="m0 0 1 2 4 1 1 10 1 6-4 1-2-3-1-8z" fill="#00308E"/>
<path transform="translate(231,550)" d="m0 0h9v5l-1 1h-13l-1-3 1-2z" fill="#002E96"/>
<path transform="translate(496,319)" d="m0 0 1 2-11 16-4 6-3 1 2-6 8-12 4-5z" fill="#00338E"/>
<path transform="translate(557,320)" d="m0 0 2 1-2 5-9 10-3-1 1-5 7-6z" fill="#002B94"/>
<path transform="translate(580,350)" d="m0 0 2 3 3 8v5l-4-1-4-9v-2l-4 1-2 3 1-5 8-1z" fill="#003789"/>
<path transform="translate(260,559)" d="m0 0 2 4 3 13v5l-2-1-1-5h-3l-2-8 1-6h2z" fill="#012E7E"/>
<path transform="translate(335,508)" d="m0 0h11l-2 2-13 5h-6l-4 1 4-4z" fill="#002C99"/>
<path transform="translate(359,771)" d="m0 0h1l1 5 1 2-1 2 2 1-6 5-4-2 1-10 3 3z" fill="#022B7E"/>
<path transform="translate(519,266)" d="m0 0 4 1 4 5-2 4h-4l-5-5 1-4z" fill="#F9CD03"/>
<path transform="translate(442,794)" d="m0 0 3 3v10l-4 2-3-2 2-11z" fill="#002E91"/>
<path transform="translate(673,492)" d="m0 0 5 1v9l-4 2-3-2v-9z" fill="#F9CD03"/>
<path transform="translate(577,348)" d="m0 0h3v4l-8 2-2 4v-3l-9 1h-2v-2z" fill="#002D98"/>
<path transform="translate(427,795)" d="m0 0 1 4 3-2h3l-1 7-2 4-5-1v-9z" fill="#022680"/>
<path transform="translate(463,647)" d="m0 0 3 2-5 3-3 1h-15l-2-2 1-1 15-1z" fill="#FDFDFD"/>
<path transform="translate(461,152)" d="m0 0 9 1 1 1v5l-4 1-7-1-1-5z" fill="#F9CD03"/>
<path transform="translate(474,554)" d="m0 0 5 1 8 7-1 3h-5l-7-8z" fill="#FDFDFD"/>
<path transform="translate(596,351)" d="m0 0 3 1 6 19v3l-4-1-1-6 1-2h-2l-3-10z" fill="#002E96"/>
<path transform="translate(332,310)" d="m0 0 5 1v4l-3 5-6-1 1-6z" fill="#F9CD03"/>
<path transform="translate(339,522)" d="m0 0h11l7 2 1 2-5-1h-13l-7 4-4 6-2-1 2-4 4-5z" fill="#01417B"/>
<path transform="translate(453,190)" d="m0 0 12 1-3 4h-35v-1l8-1h19z" fill="#01417B"/>
<path transform="translate(485,554)" d="m0 0 7 1 8 4v2h-11l-4-5z" fill="#FDFDFD"/>
<path transform="translate(233,376)" d="m0 0 7 1-2 1 1 3h5l-1 4-16-4 4-4z" fill="#013F7C"/>
<path transform="translate(638,360)" d="m0 0h16l2 3-3 1h-14z" fill="#002C96"/>
<path transform="translate(415,788)" d="m0 0 3 1v16h-4v-14z" fill="#002792"/>
<path transform="translate(400,374)" d="m0 0 4 1 15 7 5 3v1l-7-1-13-6z" fill="#003093"/>
<path transform="translate(378,764)" d="m0 0 5 2-1 4-3 4h-2-3v-3l-2-1z" fill="#022C7D"/>
<path transform="translate(439,556)" d="m0 0 4 1v7l-1 2-4 1-3-2 1-5z" fill="#FDFDFD"/>
<path transform="translate(578,415)" d="m0 0h3l4 5v3h-8l-3 2 1-7z" fill="#002B97"/>
<path transform="translate(358,247)" d="m0 0 2 1-1 4-11 11-2-4z" fill="#02267D"/>
<path transform="translate(255,529)" d="m0 0h1l1 14-3 1-1 4-2-12v-6l4 2z" fill="#022E7D"/>
<path transform="translate(558,358)" d="m0 0h3l6 13-4 2-3-5-2-5z" fill="#002F95"/>
<path transform="translate(643,308)" d="m0 0h6l2 1v3l-7 2-5 2-2-4z" fill="#00358A"/>
<path transform="translate(610,251)" d="m0 0h1l-1 7-3 5-5 1v-5l4-6z" fill="#002C98"/>
<path transform="translate(586,527)" d="m0 0 3 1 1 4-3 8h-3l-2-2-1-7 4 1z" fill="#013F7B"/>
<path transform="translate(648,316)" d="m0 0 6 1v3l-7 3-5 1-1-5z" fill="#022C7C"/>
<path transform="translate(459,556)" d="m0 0 4 2 3 4-1 5-5-1-2-5z" fill="#FDFDFD"/>
<path transform="translate(340,507)" d="m0 0h11l6 1v2l4 2-3 1-4-1-13-1 3-2z" fill="#01367D"/>
<path transform="translate(675,403)" d="m0 0 4 2-1 4-2 1h-12l2-2h3l1-3z" fill="#002D98"/>
<path transform="translate(299,284)" d="m0 0 3 1-6 12h-2l-1 2-3 3 1-5z" fill="#002A95"/>
<path transform="translate(304,276)" d="m0 0 2 3 3-2-2 5-7 11-3 3 1-4 3-7-1-3z" fill="#02297C"/>
<path transform="translate(441,260)" d="m0 0 13 1-3 2 4 3h-22l4-2h9v-2l-5-1z" fill="#01357B"/>
<path transform="translate(457,655)" d="m0 0 4 1 1 9-5 1-1-1v-9z" fill="#FDFDFD"/>
<path transform="translate(449,556)" d="m0 0 4 1 1 7-1 3h-5v-10z" fill="#FDFDFD"/>
<path transform="translate(340,386)" d="m0 0h5l-4 17-1 2h-2l2-18z" fill="#002B9A"/>
<path transform="translate(525,247)" d="m0 0 5 2 5 4v2l3 1v2h2l3 5v3l-18-18z" fill="#02287C"/>
<path transform="translate(285,241)" d="m0 0 9 2 1 5-2 2-4-1-4-6z" fill="#F9CD03"/>
<path transform="translate(586,765)" d="m0 0 1 3-8 6-11 9-4 3-3-1 14-11z" fill="#02257C"/>
<path transform="translate(235,337)" d="m0 0h9l1 3-2 5-6-3-2-2z" fill="#F9CD03"/>
<path transform="translate(402,638)" d="m0 0 3 1-2 5-4 3h-8l2-4 5-1z" fill="#022D7D"/>
<path transform="translate(657,584)" d="m0 0 12 2 1 4-1 1h-6l-6-5z" fill="#003787"/>
<path transform="translate(374,519)" d="m0 0 5 5 2 4v7l-3-2-5-10-2-3z" fill="#02287D"/>
<path transform="translate(233,518)" d="m0 0h2v5h-10l-9-2v-1z" fill="#00289F"/>
<path transform="translate(251,473)" d="m0 0h1l1 18v16l-3-4z" fill="#01417B"/>
<path transform="translate(377,624)" d="m0 0 4 1 3 6-1 4h-4l-3-9z" fill="#FDFDFD"/>
<path transform="translate(659,576)" d="m0 0 13 1-1 5-2 1-7-3-3-2z" fill="#00318C"/>
<path transform="translate(208,507)" d="m0 0h3l1 3h6l-3 2-7 3h-3v-6z" fill="#022A7C"/>
<path transform="translate(504,254)" d="m0 0h1v9l-3 10-2 1-2-1v-3l2-1 2-8 1-6z" fill="#002D97"/>
<path transform="translate(589,229)" d="m0 0 4 1-5 8-4-2-2-3z" fill="#F9CD03"/>
<path transform="translate(665,464)" d="m0 0 8 1 1 4-4 2-5-1z" fill="#F9CD03"/>
<path transform="translate(599,225)" d="m0 0 1 4-4 6-1-2-4 1 1-4-3-2 9-2z" fill="#022C7C"/>
<path transform="translate(559,400)" d="m0 0 4 1 13 1-1 3h-10l-3-1h-3z" fill="#002B9B"/>
<path transform="translate(471,362)" d="m0 0 1 3-6 16-2-2 2-9 2-5z" fill="#002D97"/>
<path transform="translate(255,332)" d="m0 0 3 1-1 4h-9l-3-2v-2z" fill="#00299E"/>
<path transform="translate(625,281)" d="m0 0h3l-1 4-4 4-4-1-1-4z" fill="#F9CD03"/>
<path transform="translate(429,166)" d="m0 0h2l4 7-1 3-5-1-2-2v-5z" fill="#002F91"/>
<path transform="translate(592,347)" d="m0 0 4 3 2 7 1 8h2l-1 6-2-4-6-18z" fill="#022A7C"/>
<path transform="translate(583,230)" d="m0 0 4 1-4 3 1 4v3l-6-5-8 1 3-3 8-1v-2z" fill="#013E7D"/>
<path transform="translate(443,226)" d="m0 0 3 1v12l-3-1-2-8v-3z" fill="#022981"/>
<path transform="translate(414,704)" d="m0 0h16l2 2 7 1v1h-8l-17-2z" fill="#02247C"/>
<path transform="translate(439,670)" d="m0 0 4 1 1 5-2 2-6-1 1-5z" fill="#FDFDFD"/>
<path transform="translate(660,473)" d="m0 0 1 2-1 1 6 1-2 2-5 2h-5v-5z" fill="#01317B"/>
<path transform="translate(655,366)" d="m0 0h5v4l-4 3-4-1v-5z" fill="#F9CD03"/>
<path transform="translate(367,268)" d="m0 0 6 1 3 2-2 4-4 1-3-5z" fill="#F9CD03"/>
<path transform="translate(418,157)" d="m0 0 4 4 1 4-6 2-1-1v-6z" fill="#F9CD03"/>
<path transform="translate(471,800)" d="m0 0 4 1 1 4h-11l-1-4z" fill="#002D96"/>
<path transform="translate(534,768)" d="m0 0 6 4v2h2l1-3 2 3-1 5h-4l-6-9z" fill="#02277E"/>
<path transform="translate(391,570)" d="m0 0 1 4 2 1-2 4-2 7h-2l-1-4z" fill="#01417B"/>
<path transform="translate(311,268)" d="m0 0 2 2-3 7-5 3v-6l4-5z" fill="#002A96"/>
<path transform="translate(572,332)" d="m0 0 3 4 2 4v4l-4-1-3-4z" fill="#003785"/>
<path transform="translate(493,310)" d="m0 0 7 1 2 1-1 5-4 3-3 1 4-8-5-1z" fill="#003093"/>
<path transform="translate(592,233)" d="m0 0h3l-1 6-2 4h-2v-2h-2l2-7z" fill="#002C98"/>
<path transform="translate(510,741)" d="m0 0 3 1-3 5-6 2v-2l-3 1-1-2z" fill="#002B92"/>
<path transform="translate(459,793)" d="m0 0h1l1 8 5 2v1l9 1v1l-15 1 1-3-3-3z" fill="#003F7C"/>
<path transform="translate(449,623)" d="m0 0h14l-2 4h-8l-4-2z" fill="#FDFDFD"/>
<path transform="translate(557,355)" d="m0 0h13l-1 5-2-2-4 1-2 2v-3h-3l-1 2-1-4z" fill="#013F7B"/>
<path transform="translate(569,692)" d="m0 0 1 4-7 8-3-1 1-4h3l2-4z" fill="#002C98"/>
<path transform="translate(483,676)" d="m0 0h6l-2 4-5 2h-3l-1-3z" fill="#FDFDFD"/>
<path transform="translate(336,515)" d="m0 0h7l-1 2-13 5-2 1v-4z" fill="#01397B"/>
<path transform="translate(670,448)" d="m0 0h6l-1 2 2 4-6 1-5-3 4-3z" fill="#013E7B"/>
<path transform="translate(292,439)" d="m0 0 2 1-10 12h-1v-6l3-1v-2z" fill="#022B7C"/>
<path transform="translate(514,782)" d="m0 0 7 3h5l-1 4-5 1-6-6z" fill="#02267C"/>
<path transform="translate(571,686)" d="m0 0 1 4 3-2-2 4-3 3-1-2-5 6-3-1 7-8z" fill="#012C81"/>
<path transform="translate(550,317)" d="m0 0h7l-2 5-5 2-1-6z" fill="#F9CD03"/>
<path transform="translate(345,260)" d="m0 0 2 1-1 4-5 4-3-1 2-4 2-3z" fill="#002996"/>
<path transform="translate(500,253)" d="m0 0 3 1-3 7-5-1-1-2 4-4z" fill="#F9CD03"/>
<path transform="translate(520,240)" d="m0 0 4 1 8 7 3 4-5-2-5-3z" fill="#002F95"/>
<path transform="translate(652,517)" d="m0 0h1l1 18 2 1h-5l-1-3z" fill="#02307C"/>
<path transform="translate(575,507)" d="m0 0 2 1-1 11-2 4-1-3v-9z" fill="#002D97"/>
<path transform="translate(246,638)" d="m0 0 4 1 4 4v2h-4v2h-2z" fill="#003091"/>
<path transform="translate(451,424)" d="m0 0h2v7l-2 7-3 1 1-8z" fill="#013B7B"/>
<path transform="translate(489,675)" d="m0 0 5 1 3 1v2l-6 2-4 1 1-4z" fill="#02277D"/>
<path transform="translate(367,631)" d="m0 0h1v5h2l4 6-1 2-5-2-2-3z" fill="#002D98"/>
<path transform="translate(260,566)" d="m0 0h2l3 10v5l-2-1-1-5h-2z" fill="#002E97"/>
<path transform="translate(500,563)" d="m0 0h5l-1 3-7 2h-6l3-3z" fill="#FDFDFD"/>
<path transform="translate(444,455)" d="m0 0h1l-1 10-1 4h-2l-1-5 3-7z" fill="#013981"/>
<path transform="translate(461,395)" d="m0 0 13 3 1 2-16-2v-2z" fill="#003093"/>
<path transform="translate(364,268)" d="m0 0 2 1v2h2l4 8h-5l-3-6z" fill="#002B98"/>
<path transform="translate(317,184)" d="m0 0h2l-1 6-2 3-4-1 2-5z" fill="#003093"/>
<path transform="translate(476,152)" d="m0 0h1v6l-4 5v-3l-4-1h2v-5l2 2 1-3z" fill="#012E7E"/>
<path transform="translate(318,691)" d="m0 0h3l7 9-1 3-7-6z" fill="#002D97"/>
<path transform="translate(448,658)" d="m0 0 3 1v7l-4 1-1-5z" fill="#FDFDFD"/>
<path transform="translate(253,519)" d="m0 0 2 1v12h-2l-1 3-1-7z" fill="#002D97"/>
<path transform="translate(559,429)" d="m0 0 2 4v2l3-1 3 4-4 3h-3z" fill="#013A7B"/>
<path transform="translate(544,388)" d="m0 0 3 3 3 14-1 4-5-17z" fill="#002C98"/>
<path transform="translate(462,161)" d="m0 0 4 1 5 2-1 2-10-2-2 7-2-4 2-5z" fill="#013F7B"/>
<path transform="translate(438,779)" d="m0 0h8l1 4-1 15-2-2 1-7-2-1h2l-1-6v-2h-6z" fill="#013F7B"/>
<path transform="translate(617,734)" d="m0 0v3l-5 6h-2v3l-5 1 6-8z" fill="#02247C"/>
<path transform="translate(509,698)" d="m0 0 3 1-5 3-5 2h-8l4-2h4l1-3h5z" fill="#002D97"/>
<path transform="translate(425,669)" d="m0 0 4 1-2 5-6-1v-3z" fill="#FDFDFD"/>
<path transform="translate(270,639)" d="m0 0h2l-2 6-4 2-4-2z" fill="#002E93"/>
<path transform="translate(674,488)" d="m0 0 5 1 1 2-1 11h-1l-1-9h-6v-2h3z" fill="#01417B"/>
<path transform="translate(330,386)" d="m0 0h2v2h2l-1 9-4-4z" fill="#00308F"/>
<path transform="translate(544,385)" d="m0 0 8 1 1 3h-4l-1 6-2-4-3-3z" fill="#02227C"/>
<path transform="translate(539,314)" d="m0 0h8l-3 4h-8v-3z" fill="#002F93"/>
<path transform="translate(433,261)" d="m0 0h9l4 1v2h-11l-3-2z" fill="#002B97"/>
<path transform="translate(395,693)" d="m0 0 6 2 1 4-6-1-2-1z" fill="#FDFDFD"/>
<path transform="translate(456,801)" d="m0 0 4 1 3 2-4 4h-3z" fill="#002A9C"/>
<path transform="translate(560,700)" d="m0 0 1 3-12 11h-3z" fill="#022C7C"/>
<path transform="translate(437,243)" d="m0 0 5 2 5 5-5 1z" fill="#02257C"/>
<path transform="translate(359,768)" d="m0 0 1 3-3 7-2-1v-6z" fill="#00299C"/>
<path transform="translate(357,758)" d="m0 0 1 4h2l-1 4-3 2-2-3 1-5z" fill="#01417B"/>
<path transform="translate(354,515)" d="m0 0 5 1 4 3v5l-6-2 2-2z" fill="#013B7B"/>
<path transform="translate(663,504)" d="m0 0 2 1v2l1 3-1 1-7-1-1-2h4v-3z" fill="#013E7B"/>
<path transform="translate(608,246)" d="m0 0h2l2 2 1 3-2 3-1-2-3 1v-3l-2-1z" fill="#01307B"/>
<path transform="translate(364,241)" d="m0 0 3 1-2 5-4 3-3-1z" fill="#002999"/>
<path transform="translate(655,502)" d="m0 0 5 1 1 5h-5l-1-1z" fill="#002D98"/>
<path transform="translate(583,326)" d="m0 0 3 1 5 13-1 4-7-16z" fill="#02287C"/>
<path transform="translate(453,190)" d="m0 0 12 1-4 3h-6z" fill="#022B7C"/>
<path transform="translate(216,463)" d="m0 0h4l-1 5v5h-3z" fill="#012A86"/>
<path transform="translate(327,433)" d="m0 0 1 4h3l-1 3-3 2-3-5 1-3 1 1z" fill="#013F7B"/>
<path transform="translate(563,314)" d="m0 0 1 3-5 5-3-1 2-6 4 1z" fill="#02287D"/>
<path transform="translate(301,217)" d="m0 0 1 3 2 1-1 4 1 2-4-2-3-4z" fill="#013E7B"/>
<path transform="translate(638,703)" d="m0 0 2 1-7 11-3 2 1-4z" fill="#02287C"/>
<path transform="translate(212,552)" d="m0 0 2 1v2l3-1v3l-1 1h-5l-1-3z" fill="#02227C"/>
<path transform="translate(362,524)" d="m0 0h3l1 5-4 1-3-3v-2z" fill="#002C99"/>
<path transform="translate(496,319)" d="m0 0 1 2-5 7-4 1 2-4 5-5z" fill="#003886"/>
<path transform="translate(401,552)" d="m0 0h2v4h-3v4l-3-1 1-5z" fill="#022A7C"/>
<path transform="translate(584,549)" d="m0 0 3 2v3l-6 1 1-5z" fill="#FDFDFD"/>
<path transform="translate(370,282)" d="m0 0h4l1 5-3 2-2-2z" fill="#002D91"/>
<path transform="translate(309,232)" d="m0 0 8 2 2-1-1 4-4 1z" fill="#022C7C"/>
<path transform="translate(214,568)" d="m0 0h2l1 3 6 1-4 2h-5l-1-5z" fill="#022E7C"/>
<path transform="translate(392,568)" d="m0 0h6l-2 4-4 2z" fill="#02267C"/>
<path transform="translate(337,509)" d="m0 0 3 1v2l-11 3 2-4z" fill="#022B7D"/>
<path transform="translate(251,501)" d="m0 0h1l1 8h-2l-2 4v-11z" fill="#0028A0"/>
<path transform="translate(667,445)" d="m0 0 1 2h2v2l2 1-7 1v-5z" fill="#002A9B"/>
<path transform="translate(580,350)" d="m0 0 1 3-2 5-2-4-4 1-2 3 1-5 8-1z" fill="#01417B"/>
<path transform="translate(648,316)" d="m0 0 6 1v3l-8 1v-4z" fill="#012A8A"/>
<path transform="translate(507,296)" d="m0 0h3l5 6-1 3-5-4z" fill="#002D97"/>
<path transform="translate(604,279)" d="m0 0h6l1 3-1 1h-6l-1-3z" fill="#002E96"/>
<path transform="translate(278,238)" d="m0 0 10 2-3 1-1 2-5-1z" fill="#013F7B"/>
</svg>
